<svg width="457" height="457" viewBox="0 0 457 457" fill="none" xmlns="http://www.w3.org/2000/svg">
<mask id="mask0_1_221" style="mask-type:luminance" maskUnits="userSpaceOnUse" x="0" y="0" width="457" height="457">
<path d="M456.58 156.913L157.312 0.0254211L-3.55852e-05 299.659L299.268 456.546L456.58 156.913Z" fill="white"/>
<path d="M456.579 156.912L299.268 456.546L-6.3957e-05 299.659L157.312 0.0254211L456.579 156.912ZM1.35046 299.238L298.847 455.197L455.229 157.334L157.733 1.37512L1.35046 299.238Z" fill="black"/>
<path d="M185.274 76.5132L136.585 50.9887C136.353 50.8674 135.84 51.3907 135.437 52.1574L33.0902 247.096C32.6876 247.863 32.5488 248.583 32.78 248.704L81.4694 274.229C81.7007 274.35 82.2145 273.827 82.617 273.06L184.964 78.121C185.366 77.3542 185.505 76.6344 185.274 76.5132Z" fill="black"/>
<path d="M184.078 77.657C184.18 77.4622 184.254 77.2825 184.304 77.1338L136.625 52.1388C136.531 52.2649 136.425 52.4273 136.322 52.6221L33.9756 247.561C33.8735 247.756 33.8004 247.935 33.7499 248.084L81.4293 273.079C81.5229 272.953 81.6289 272.791 81.7311 272.596L184.078 77.657ZM82.6168 273.06L82.4615 273.335C82.0905 273.947 81.672 274.334 81.4695 274.229L32.7799 248.704C32.5777 248.598 32.6588 248.034 32.9519 247.381L33.0899 247.097L135.437 52.1578C135.839 51.3912 136.353 50.8676 136.584 50.9886L185.274 76.5132C185.505 76.6349 185.366 77.3549 184.964 78.1213L82.6168 273.06Z" fill="black"/>
</mask>
<g mask="url(#mask0_1_221)">
<path d="M235.985 68.6967C297.319 70.29 352.675 104.852 376.571 156.308L376.572 156.309C397.754 202.18 390.793 263.823 366.731 315.031L366.278 314.818L365.826 314.606C389.811 263.561 396.681 202.243 375.664 156.729L375.103 155.535C351.084 105.115 296.474 71.2683 235.959 69.6962C174.943 68.1111 119.174 94.1184 89.699 144.913L89.6986 144.914C61.3543 193.553 62.758 255.066 90.9179 308.522L90.9192 308.523C114.719 354.134 166.39 389.515 222.893 394.277C279.369 399.036 332.935 371.904 363.564 318.914L363.997 319.164L364.43 319.413C333.611 372.733 279.678 400.064 222.81 395.273C165.971 390.483 113.994 354.906 90.0336 308.988L90.0331 308.988C61.7367 255.274 60.2916 193.391 88.8342 144.411C118.527 93.2423 174.676 67.104 235.985 68.6967Z" fill="black"/>
</g>
<path d="M167.7 78.1784L167.848 78.619L167.038 79.0816L166.753 86.8836C166.647 89.8147 166.035 91.192 164.883 91.5798C164.186 91.8144 163.455 91.665 163.259 91.1297C163.215 90.7173 163.551 90.3985 163.963 90.2596C164.361 90.1256 164.717 90.1956 165.207 90.4264L165.359 90.5018C165.912 89.746 166.117 88.7115 166.143 87.6112L166.161 87.2412L160.952 81.0834L159.999 81.2619L159.851 80.8213L163.377 79.6339L163.53 80.0887L162.218 80.7047L166.213 85.6571L166.332 79.3352L164.876 79.6197L164.728 79.1791L167.7 78.1784Z" fill="black"/>
<path d="M159.696 87.5044L158.593 85.1562C158.106 85.5669 157.598 86.0374 157.301 86.3589C156.219 87.4795 156.243 88.1644 156.498 88.7073C156.88 89.5218 157.568 89.646 158.302 89.3017C158.872 89.034 159.151 88.6047 159.696 87.5044ZM162.274 87.2054L162.638 87.3821C162.542 88.0237 162.251 88.3923 161.775 88.6154C161.083 88.9406 160.431 88.6831 159.959 87.9939C159.525 89.2244 159.167 89.8731 158.284 90.2875C157.197 90.7975 156.035 90.5811 155.487 89.4138C155.06 88.5043 155.277 87.5906 156.812 86.0584C157.265 85.6469 157.828 85.1508 158.389 84.7218L158.185 84.2874C157.484 82.7943 156.863 82.6382 155.831 83.1228C155.546 83.2566 155.246 83.4304 154.95 83.7184L155.123 84.8631C155.199 85.3077 155.091 85.607 154.738 85.7727C154.399 85.9321 154.079 85.8505 153.898 85.5374C153.661 84.2905 154.408 83.1281 155.848 82.4523C157.355 81.7446 158.407 82.079 159.236 83.8436L160.747 87.0606C161.117 87.8479 161.449 87.9902 161.815 87.8181C162.06 87.7033 162.172 87.5182 162.274 87.2054Z" fill="black"/>
<path d="M152.824 91.1346L150.452 87.1365C149.447 86.913 148.803 87.0333 148.287 87.3394C147.151 88.0128 146.688 89.438 147.897 91.4757C149.053 93.4231 150.456 93.7592 151.63 93.0628C152.289 92.6726 152.634 92.1367 152.824 91.1346ZM154.287 91.3655L155.61 90.7727L155.855 91.1854L153.815 92.5694L153.156 91.6352C153.03 92.599 152.62 93.348 151.755 93.8607C150.064 94.8632 148.061 94.1333 146.867 92.1213C145.582 89.9546 146.02 87.8118 147.749 86.7864C148.382 86.4114 149.165 86.2609 150.192 86.6106L148.118 83.1155L146.844 83.7317L146.607 83.3318L148.299 81.5964L148.548 81.6053L149.68 83.6015L154.287 91.3655Z" fill="black"/>
<path d="M144.292 89.0606L144.562 89.4395L143.92 90.1162L145.902 97.6674C146.648 100.504 146.46 101.999 145.469 102.703C144.87 103.129 144.126 103.197 143.784 102.741C143.623 102.359 143.852 101.957 144.207 101.705C144.549 101.461 144.91 101.426 145.446 101.505L145.613 101.533C145.924 100.65 145.822 99.6006 145.528 98.54L145.438 98.1807L138.672 93.79L137.811 94.2362L137.541 93.8573L140.574 91.7023L140.852 92.0934L139.774 93.062L145.03 96.6491L143.317 90.5629L142.006 91.2556L141.736 90.8767L144.292 89.0606Z" fill="black"/>
<path d="M134.287 96.4106L135.636 97.8472C135.23 96.4806 135.47 95.248 136.207 94.6557C136.581 94.3549 137.098 94.2083 137.434 94.3619C137.838 94.8643 137.874 95.3162 137.418 95.6829C137.126 95.9179 136.791 95.9563 136.397 95.9457L136.121 95.9371C135.863 96.7411 135.921 97.5794 136.278 98.6207L137.133 99.6839C137.613 100.28 138.339 101.158 138.877 101.803L140.075 101.09L140.376 101.464L137.394 103.861L137.094 103.488L137.939 102.576C137.436 101.903 136.724 100.994 136.245 100.398L135.727 99.7558C135.126 99.008 134.717 98.5477 134.252 98.0174L133.145 98.7723L132.844 98.3984L134.03 96.4254L134.287 96.4106Z" fill="black"/>
<path d="M129.403 104.911L132.02 102.572C132.512 102.132 132.404 101.786 132.084 101.428C131.384 100.646 130.161 100.472 129.3 101.242C128.484 101.972 128.267 103.372 129.403 104.911ZM133.775 101.787L129.772 105.346C131.264 106.99 132.866 107.026 134.051 105.966C134.846 105.256 135.061 104.44 135.027 103.524L135.422 103.493C135.684 104.708 135.372 105.912 134.332 106.842C132.766 108.242 130.667 108.168 128.956 106.257C127.286 104.39 127.48 102.065 128.956 100.745C130.253 99.5846 131.983 99.6275 133.233 101.024C133.493 101.315 133.681 101.57 133.775 101.787Z" fill="black"/>
<path d="M125.8 103.842L126.17 104.214L125.629 105.009L128.761 111.925L128.358 112.328L121.232 109.332L120.435 109.935L120.064 109.564L122.72 106.915L123.091 107.286L122.188 108.42L127.712 110.917L125.129 105.528L124.025 106.354L123.654 105.983L125.8 103.842Z" fill="black"/>
<path d="M118.246 116.289L120.614 113.698C121.059 113.21 120.917 112.877 120.562 112.554C119.787 111.846 118.553 111.796 117.773 112.648C117.035 113.457 116.96 114.872 118.246 116.289ZM122.281 112.741L118.656 116.684C120.306 118.17 121.904 118.044 122.976 116.871C123.695 116.084 123.827 115.25 123.702 114.343L124.091 114.273C124.474 115.455 124.285 116.684 123.344 117.714C121.927 119.264 119.83 119.402 117.936 117.672C116.087 115.983 116.045 113.65 117.381 112.188C118.555 110.904 120.28 110.773 121.665 112.037C121.953 112.3 122.165 112.534 122.281 112.741Z" fill="black"/>
<path d="M116.374 124.36L117.264 123.553L117.64 123.851L115.354 126.73L114.978 126.431L115.63 125.321C114.993 124.796 114.098 124.067 113.487 123.582L112.311 122.65C111.089 121.68 110.41 121.716 109.813 122.468C109.356 123.043 109.127 123.838 109.223 125.14L111.079 126.613C111.679 127.088 112.593 127.794 113.248 128.295L114.138 127.488L114.514 127.787L112.238 130.653L111.862 130.355L112.504 129.256C111.865 128.711 110.97 127.981 110.37 127.506L109.724 126.993C108.984 126.406 108.472 126.038 107.901 125.623L106.988 126.603L106.612 126.305L107.333 124.119L107.581 124.048L108.737 124.812C108.526 123.534 108.767 122.289 109.392 121.502C110.241 120.433 111.317 120.405 112.974 121.72L114.196 122.689C114.807 123.174 115.709 123.871 116.374 124.36Z" fill="black"/>
<path d="M102.493 127.088C102.183 127.511 101.632 127.629 101.196 127.31C100.749 126.982 100.707 126.43 101.017 126.007C101.336 125.571 101.875 125.445 102.323 125.773C102.758 126.092 102.813 126.653 102.493 127.088ZM110.344 132.057L111.202 131.217L111.589 131.501L109.425 134.452L109.037 134.169L109.643 133.013C108.986 132.514 108.063 131.819 107.446 131.367L106.769 130.871C106.019 130.321 105.535 129.967 104.912 129.548L104.023 130.607L103.624 130.315L104.387 127.955L104.641 127.862L106.333 129.157L108.112 130.46C108.729 130.912 109.669 131.582 110.344 132.057Z" fill="black"/>
<path d="M101.251 138.274L101.75 137.903C103.118 136.904 104.051 136.803 104.887 137.36C105.874 138.016 106.199 139.476 105.068 141.174C104.57 141.923 104.004 142.393 103.251 142.847L101.757 141.925L102.156 141.326L103.55 141.857C103.924 141.62 104.261 141.303 104.569 140.841C105.309 139.73 105.196 138.898 104.522 138.45C103.91 138.043 103.34 138.222 102.396 138.909L101.743 139.376C100.715 140.134 99.7583 140.434 98.8341 139.819C97.86 139.171 97.5513 137.795 98.5324 136.321C99.0147 135.597 99.5679 135.173 100.317 134.806L101.632 135.753L101.266 136.302L100.005 135.788C99.5934 136 99.2731 136.292 99.032 136.654C98.425 137.565 98.542 138.31 99.1539 138.717C99.7908 139.14 100.286 138.965 101.251 138.274Z" fill="black"/>
<path d="M97.4596 144.176L97.946 143.789C99.2802 142.744 100.208 142.612 101.063 143.14C102.071 143.763 102.446 145.211 101.372 146.946C100.899 147.712 100.349 148.201 99.6119 148.68L98.0874 147.808L98.4662 147.196L99.8776 147.68C100.244 147.43 100.57 147.103 100.862 146.631C101.564 145.495 101.424 144.668 100.735 144.242C100.109 143.856 99.5456 144.054 98.625 144.772L97.9879 145.261C96.9866 146.052 96.0402 146.385 95.096 145.801C94.1007 145.186 93.746 143.821 94.6772 142.316C95.1349 141.576 95.6736 141.133 96.4097 140.741L97.7562 141.644L97.409 142.205L96.1312 141.733C95.7268 141.959 95.4165 142.261 95.1876 142.631C94.6115 143.562 94.7533 144.302 95.3786 144.689C96.0294 145.091 96.5183 144.899 97.4596 144.176Z" fill="black"/>
<path d="M92.567 152.634L94.3023 149.583C94.6286 149.01 94.4158 148.716 93.9984 148.479C93.0854 147.961 91.8707 148.185 91.2997 149.189C90.7583 150.141 90.9996 151.537 92.567 152.634ZM95.7157 148.282L93.0552 152.929C94.9929 154.012 96.5235 153.536 97.3096 152.154C97.8361 151.228 97.7803 150.386 97.4565 149.529L97.8209 149.374C98.4559 150.442 98.5442 151.682 97.8546 152.895C96.8163 154.72 94.8022 155.319 92.5719 154.052C90.3938 152.815 89.8362 150.549 90.8151 148.827C91.6753 147.315 93.3286 146.805 94.9589 147.731C95.298 147.924 95.5571 148.105 95.7157 148.282Z" fill="black"/>
<path d="M94.2286 157.607L94.9469 156.644L95.3733 156.865L93.6828 160.128L93.2565 159.907L93.6831 158.693C92.9572 158.3 91.9383 157.756 91.2455 157.398L89.9132 156.708C88.5276 155.992 87.8676 156.157 87.4261 157.009C87.088 157.662 87.0159 158.486 87.3603 159.745L89.4653 160.834C90.1448 161.185 91.1775 161.703 91.9172 162.069L92.6355 161.106L93.0618 161.327L91.3782 164.576L90.9519 164.356L91.3716 163.154C90.6393 162.742 89.6204 162.198 88.9409 161.846L88.2082 161.467C87.3688 161.033 86.7955 160.77 86.1555 160.473L85.4482 161.61L85.0218 161.389L85.3093 159.106L85.5391 158.988L86.82 159.516C86.3676 158.302 86.3655 157.035 86.8277 156.142C87.4556 154.93 88.5058 154.697 90.3843 155.669L91.7699 156.386C92.4627 156.744 93.4821 157.255 94.2286 157.607Z" fill="black"/>
<path d="M81.1284 162.923C80.9027 163.397 80.3835 163.616 79.8958 163.384C79.3945 163.145 79.2499 162.612 79.4756 162.138C79.7078 161.65 80.2135 161.425 80.7147 161.664C81.2024 161.896 81.3605 162.436 81.1284 162.923ZM89.7714 166.335L90.4569 165.349L90.8904 165.555L89.317 168.86L88.8835 168.654L89.2619 167.405C88.5233 167.037 87.4866 166.528 86.7957 166.199L86.0371 165.839C85.1972 165.439 84.6553 165.182 83.965 164.887L83.2905 166.094L82.8434 165.881L83.1514 163.42L83.3836 163.282L85.2879 164.237L87.2793 165.184C87.9702 165.512 89.0198 165.995 89.7714 166.335Z" fill="black"/>
<path d="M80.94 172.571L85.2914 174.452C86.1594 174.108 86.6359 173.611 86.9039 172.992C87.4162 171.808 86.9638 170.436 84.8708 169.532C82.8465 168.657 81.4031 169.046 80.8849 170.244C80.6704 170.739 80.5538 171.424 80.94 172.571ZM79.4424 172.104L80.4696 172.45C79.9807 171.389 79.9819 170.442 80.3334 169.63C81.0303 168.019 82.9788 167.407 85.2372 168.383C87.5643 169.388 88.47 171.299 87.7075 173.061C87.4097 173.749 86.8676 174.398 85.7633 174.721L87.0439 175.274C87.8426 175.62 88.7574 175.998 89.6093 176.334L90.4019 174.993L90.8425 175.184L89.2282 178.914L88.7876 178.724L89.1506 177.394C88.3304 177.023 87.455 176.628 86.6426 176.277L82.2912 174.397C81.4099 174.016 80.8256 173.78 80.1605 173.542L79.528 174.739L79.0873 174.549L79.2213 172.237L79.4424 172.104Z" fill="black"/>
<path d="M77.4916 181.274L81.9266 182.948C82.7775 182.564 83.2301 182.045 83.4688 181.414C83.9249 180.208 83.4086 178.858 81.2754 178.053C79.2123 177.274 77.7887 177.731 77.3273 178.952C77.1363 179.457 77.052 180.146 77.4916 181.274ZM75.9737 180.877L77.016 181.175C76.4778 180.138 76.4346 179.192 76.7475 178.364C77.3681 176.723 79.2858 176.02 81.5874 176.888C83.9593 177.784 84.9537 179.65 84.2747 181.446C84.0095 182.147 83.4985 182.82 82.4106 183.195L83.7158 183.688C84.5298 183.995 85.4614 184.331 86.3281 184.626L87.0569 183.25L87.506 183.419L86.0686 187.221L85.6195 187.052L85.9197 185.706C85.0829 185.374 84.19 185.021 83.362 184.708L78.927 183.034C78.0288 182.695 77.434 182.487 76.7585 182.28L76.1829 183.506L75.7338 183.336L75.7591 181.021L75.9737 180.877Z" fill="black"/>
<path d="M79.8222 188.103L77.3566 187.293C77.3211 187.928 77.3144 188.621 77.3446 189.057C77.4172 190.612 77.9314 191.065 78.5015 191.253C79.3566 191.533 79.9196 191.118 80.1727 190.349C80.3696 189.751 80.249 189.253 79.8222 188.103ZM81.3749 186.024L81.7539 185.88C82.1545 186.39 82.2228 186.855 82.0587 187.353C81.8196 188.08 81.185 188.377 80.3589 188.247C80.9566 189.407 81.1824 190.112 80.8777 191.039C80.5026 192.178 79.547 192.875 78.3213 192.472C77.3664 192.158 76.8509 191.373 76.7901 189.206C76.8019 188.595 76.8274 187.845 76.9005 187.143L76.4444 186.993C74.8767 186.478 74.3372 186.822 73.9809 187.905C73.8824 188.204 73.8031 188.541 73.8095 188.953L74.761 189.613C75.1368 189.863 75.2803 190.147 75.1584 190.517C75.0412 190.874 74.762 191.05 74.4105 190.966C73.3403 190.283 73.0076 188.943 73.5045 187.432C74.0249 185.851 74.9907 185.316 76.8435 185.924L80.2213 187.034C81.0479 187.306 81.3795 187.162 81.506 186.777C81.5904 186.521 81.5327 186.312 81.3749 186.024Z" fill="black"/>
<path d="M78.7329 194.987L79.2374 193.881L79.7006 194.007L78.7356 197.537L78.2725 197.411L78.4349 196.134C77.6284 195.898 76.5324 195.583 75.7798 195.378L74.3325 194.983C72.8274 194.573 72.2127 194.887 71.9556 195.827C71.7579 196.551 71.8167 197.359 72.457 198.545L74.7437 199.169C75.4818 199.37 76.6002 199.66 77.4146 199.866L77.9007 198.771L78.3638 198.897L77.3949 202.442L76.9318 202.315L77.0837 201.02C76.2917 200.788 75.1812 200.469 74.4431 200.268L67.2356 198.302L66.7599 199.586L66.3113 199.464L66.3085 197.085L66.4981 196.903L68.7111 197.569L71.9096 198.442C71.2127 197.35 70.9199 196.089 71.1928 195.09C71.5527 193.774 72.5161 193.322 74.5713 193.882L76.0765 194.293C76.829 194.498 77.9329 194.784 78.7329 194.987Z" fill="black"/>
<path d="M70.8986 211.609L71.5432 208.16C71.6644 207.511 71.3674 207.303 70.8955 207.215C69.8631 207.023 68.7879 207.631 68.5758 208.766C68.3748 209.842 69.0586 211.083 70.8986 211.609ZM72.4544 206.468L71.4563 211.729C73.6418 212.121 74.9333 211.171 75.2253 209.609C75.4209 208.562 75.0931 207.784 74.5074 207.08L74.8012 206.814C75.7501 207.617 76.2385 208.76 75.9824 210.131C75.5967 212.195 73.8879 213.418 71.3659 212.947C68.9029 212.488 67.6361 210.528 67.9997 208.582C68.3192 206.872 69.7157 205.851 71.5593 206.195C71.9427 206.266 72.2469 206.353 72.4544 206.468Z" fill="black"/>
<path d="M74.088 215.864L74.47 214.554L74.9453 214.621L74.3935 218.527L73.9181 218.46L73.9201 217.052C73.0457 216.913 72.0822 216.762 71.2056 216.639L63.8073 215.597L63.4975 216.931L63.037 216.866L62.7383 214.477L62.9035 214.273L65.185 214.64L71.3651 215.51C72.2416 215.634 73.2094 215.755 74.088 215.864Z" fill="black"/>
<path d="M73.4028 219.085L73.8067 218.825C74.2412 219.292 74.4468 219.931 74.3683 220.692C74.2514 221.825 73.5749 222.389 72.3063 222.259C71.9332 222.22 71.5915 222.17 71.0094 222.11L66.9947 221.698L66.844 223.16L66.2918 223.103L66.2696 221.563L64.0977 220.978L64.1823 220.158L66.4267 220.479L66.6574 218.241L67.3439 218.312L67.1116 220.564L72.3651 221.104C73.2456 221.194 73.6556 220.875 73.7187 220.263C73.7587 219.875 73.6582 219.533 73.4028 219.085Z" fill="black"/>
<path d="M72.8906 224.243L73.2814 223.963C73.738 224.409 73.9741 225.037 73.9325 225.801C73.8705 226.939 73.2219 227.535 71.9485 227.466C71.574 227.445 71.2302 227.412 70.646 227.38L66.616 227.162L66.536 228.629L65.9817 228.599L65.8852 227.062L63.6876 226.583L63.7325 225.759L65.9897 225.971L66.1122 223.725L66.8013 223.763L66.6781 226.024L71.9515 226.309C72.8354 226.357 73.2295 226.018 73.263 225.404C73.2842 225.015 73.1673 224.678 72.8906 224.243Z" fill="black"/>
<path d="M63.583 231.266C63.5796 231.791 63.2017 232.208 62.6616 232.205C62.1064 232.201 61.7492 231.779 61.7527 231.254C61.7563 230.714 62.1191 230.297 62.6742 230.3C63.2144 230.304 63.5866 230.726 63.583 231.266ZM72.8592 230.695L73.0621 229.512L73.5422 229.515L73.5179 233.174L73.0378 233.171L72.8513 231.88C72.0262 231.86 70.8711 231.837 70.1059 231.832L69.2658 231.827C68.3356 231.821 67.7354 231.817 66.9851 231.842L66.8859 233.222L66.3908 233.218L65.6263 230.859L65.7778 230.635L67.908 230.694L70.1134 230.708C70.8786 230.712 72.0339 230.705 72.8592 230.695Z" fill="black"/>
<path d="M72.9116 235.364L73.0491 234.007L73.5288 233.987L73.6964 237.927L73.2167 237.948L72.9626 236.563C72.0775 236.585 71.1026 236.612 70.2181 236.65L62.7531 236.969L62.6912 238.338L62.2265 238.358L61.4982 236.062L61.6235 235.832L63.9339 235.778L70.1697 235.511C71.0541 235.473 72.0278 235.417 72.9116 235.364Z" fill="black"/>
<path d="M71.174 249.534L70.5163 246.163L65.7514 248.85L71.174 249.534ZM73.58 242.983L73.4688 241.63L73.9989 241.526L74.8289 245.78L74.2987 245.883L73.8209 244.296L71.0799 245.839L71.818 249.622L74.9057 250.012L74.7956 248.429L75.3257 248.326L76.015 251.858L75.4848 251.962L75.0497 250.672L64.2547 249.25L64.0939 248.425L73.58 242.983Z" fill="black"/>
<path d="M231.568 123.516C238.616 127.851 242.065 136.998 242.065 146.812C242.065 156.643 238.612 167.287 231.673 174.755L231.306 175.149L230.94 174.755C224.001 167.287 220.548 156.643 220.548 146.812C220.548 136.998 223.997 127.851 231.045 123.516L231.306 123.355L231.568 123.516ZM231.306 124.532C224.849 128.676 221.548 137.301 221.548 146.812C221.548 156.257 224.812 166.437 231.306 173.668C237.8 166.437 241.065 156.257 241.065 146.812C241.065 137.301 237.764 128.676 231.306 124.532Z" fill="black"/>
<path d="M231.606 126.045V172.312H231.006V126.045H231.606Z" fill="black"/>
<path d="M316.755 202.594C316.372 202.608 315.785 202.717 314.992 202.922C314.199 203.128 313.631 203.339 313.289 203.558C312.797 203.9 312.462 204.556 312.285 205.527C312.12 206.498 312.038 207.728 312.038 209.218V230.526H310.254L292.618 206.716V221.728C292.618 223.41 292.72 224.702 292.925 225.604C293.144 226.506 293.472 227.149 293.91 227.532C294.224 227.833 294.873 228.113 295.858 228.373C296.842 228.632 297.492 228.769 297.806 228.783V230.239H285.87V228.783C286.24 228.755 286.862 228.626 287.737 228.393C288.612 228.147 289.159 227.928 289.377 227.737C289.856 227.354 290.184 226.773 290.362 225.994C290.539 225.201 290.628 223.854 290.628 221.954V207.619C290.628 206.99 290.519 206.361 290.3 205.732C290.081 205.103 289.787 204.618 289.418 204.276C288.926 203.825 288.256 203.442 287.409 203.128C286.575 202.799 285.898 202.622 285.378 202.594V201.138H293.684L310.049 223.328V209.485C310.049 207.79 309.94 206.491 309.721 205.588C309.502 204.672 309.188 204.064 308.778 203.763C308.395 203.503 307.766 203.251 306.891 203.004C306.03 202.758 305.373 202.622 304.922 202.594V201.138H316.755V202.594Z" fill="black"/>
<path d="M279.144 204.584C280.429 205.923 281.434 207.544 282.159 209.444C282.883 211.331 283.245 213.422 283.245 215.719C283.245 218.03 282.876 220.128 282.138 222.015C281.4 223.902 280.374 225.508 279.062 226.835C277.79 228.147 276.314 229.159 274.632 229.87C272.951 230.581 271.16 230.936 269.259 230.936C267.236 230.936 265.363 230.56 263.64 229.808C261.931 229.043 260.461 227.983 259.231 226.629C258 225.303 257.03 223.697 256.319 221.81C255.621 219.91 255.273 217.879 255.273 215.719C255.273 213.354 255.642 211.249 256.38 209.403C257.118 207.544 258.137 205.937 259.436 204.584C260.721 203.244 262.211 202.218 263.907 201.507C265.616 200.796 267.4 200.441 269.259 200.441C271.187 200.441 273.005 200.803 274.714 201.528C276.423 202.253 277.9 203.271 279.144 204.584ZM276.088 225.214C276.854 223.97 277.408 222.562 277.749 220.99C278.105 219.418 278.283 217.661 278.283 215.719C278.283 213.723 278.084 211.891 277.688 210.223C277.305 208.555 276.738 207.133 275.986 205.958C275.234 204.795 274.29 203.893 273.156 203.251C272.021 202.594 270.722 202.266 269.259 202.266C267.618 202.266 266.224 202.642 265.076 203.394C263.927 204.146 262.991 205.151 262.266 206.409C261.582 207.612 261.07 209.02 260.728 210.633C260.4 212.247 260.236 213.942 260.236 215.719C260.236 217.688 260.413 219.465 260.769 221.051C261.124 222.637 261.685 224.045 262.451 225.276C263.189 226.479 264.118 227.422 265.24 228.106C266.361 228.776 267.701 229.111 269.259 229.111C270.722 229.111 272.041 228.769 273.217 228.086C274.393 227.402 275.35 226.445 276.088 225.214Z" fill="black"/>
<path d="M250.166 216.888C250.782 217.572 251.233 218.324 251.52 219.144C251.821 219.951 251.971 220.894 251.971 221.974C251.971 224.544 251.021 226.664 249.12 228.332C247.22 230 244.862 230.834 242.045 230.834C240.746 230.834 239.448 230.635 238.149 230.239C236.85 229.829 235.729 229.336 234.785 228.762L233.904 230.259H232.263L231.976 220.293H233.637C233.979 221.523 234.375 222.637 234.827 223.635C235.291 224.62 235.9 225.543 236.652 226.404C237.363 227.211 238.19 227.853 239.133 228.332C240.09 228.81 241.198 229.049 242.455 229.049C243.399 229.049 244.219 228.926 244.916 228.68C245.627 228.434 246.202 228.086 246.639 227.634C247.077 227.183 247.398 226.657 247.603 226.055C247.822 225.44 247.931 224.736 247.931 223.943C247.931 222.781 247.603 221.701 246.947 220.703C246.29 219.691 245.313 218.925 244.014 218.406C243.125 218.05 242.107 217.661 240.958 217.237C239.81 216.799 238.819 216.389 237.985 216.006C236.344 215.268 235.066 214.304 234.15 213.115C233.247 211.912 232.796 210.346 232.796 208.419C232.796 207.311 233.022 206.279 233.473 205.322C233.924 204.365 234.567 203.51 235.401 202.758C236.194 202.047 237.13 201.494 238.21 201.097C239.29 200.687 240.418 200.482 241.594 200.482C242.934 200.482 244.13 200.687 245.183 201.097C246.249 201.507 247.22 201.986 248.095 202.533L248.936 201.138H250.577L250.741 210.797H249.079C248.779 209.69 248.437 208.63 248.054 207.619C247.685 206.607 247.2 205.691 246.598 204.871C246.01 204.078 245.292 203.449 244.445 202.984C243.597 202.505 242.558 202.266 241.327 202.266C240.029 202.266 238.921 202.683 238.005 203.517C237.089 204.351 236.631 205.37 236.631 206.573C236.631 207.831 236.925 208.877 237.513 209.711C238.101 210.531 238.955 211.208 240.077 211.741C241.075 212.219 242.052 212.636 243.009 212.992C243.98 213.334 244.916 213.703 245.819 214.099C246.639 214.455 247.425 214.858 248.177 215.309C248.943 215.76 249.606 216.287 250.166 216.888Z" fill="black"/>
<path d="M228.408 230.239H215.303V228.783C215.672 228.755 216.205 228.714 216.903 228.66C217.6 228.605 218.092 228.523 218.379 228.414C218.83 228.236 219.159 227.997 219.364 227.696C219.569 227.381 219.671 226.951 219.671 226.404V205.322C219.671 204.843 219.596 204.447 219.446 204.132C219.295 203.804 218.94 203.531 218.379 203.312C217.969 203.148 217.45 202.998 216.821 202.861C216.205 202.711 215.7 202.622 215.303 202.594V201.138H228.408V202.594C227.984 202.608 227.478 202.663 226.89 202.758C226.302 202.84 225.789 202.95 225.352 203.086C224.832 203.251 224.484 203.517 224.306 203.886C224.128 204.255 224.039 204.666 224.039 205.117V226.178C224.039 226.629 224.135 227.033 224.327 227.388C224.532 227.73 224.873 228.003 225.352 228.209C225.639 228.318 226.104 228.441 226.746 228.578C227.403 228.701 227.956 228.769 228.408 228.783V230.239Z" fill="black"/>
<path d="M214.647 230.239H202.527V228.783C203.593 228.714 204.475 228.578 205.172 228.373C205.883 228.168 206.239 227.915 206.239 227.614C206.239 227.491 206.225 227.34 206.198 227.163C206.17 226.985 206.129 226.828 206.075 226.691L203.655 220.169H193.462C193.079 221.127 192.765 221.961 192.519 222.671C192.286 223.382 192.075 224.039 191.883 224.64C191.705 225.228 191.582 225.707 191.514 226.076C191.446 226.445 191.411 226.746 191.411 226.978C191.411 227.525 191.842 227.949 192.703 228.25C193.565 228.55 194.535 228.728 195.616 228.783V230.239H184.664V228.783C185.02 228.755 185.464 228.68 185.997 228.557C186.531 228.42 186.968 228.243 187.31 228.024C187.857 227.655 188.281 227.272 188.581 226.876C188.882 226.465 189.176 225.905 189.463 225.194C190.926 221.544 192.539 217.442 194.303 212.889C196.067 208.336 197.639 204.283 199.02 200.728H200.66L210.361 225.83C210.566 226.363 210.798 226.794 211.058 227.122C211.318 227.45 211.68 227.771 212.145 228.086C212.459 228.277 212.869 228.441 213.375 228.578C213.881 228.701 214.305 228.769 214.647 228.783V230.239ZM202.916 218.344L198.507 207.065L194.18 218.344H202.916Z" fill="black"/>
<path d="M183.577 230.239H170.719V228.783C171.184 228.769 171.779 228.721 172.503 228.639C173.242 228.557 173.747 228.441 174.021 228.291C174.445 228.031 174.752 227.737 174.944 227.409C175.149 227.067 175.251 226.643 175.251 226.137V204.973H174.944L165.018 229.767H163.993L154.538 204.461H154.272V221.831C154.272 223.512 154.374 224.791 154.579 225.666C154.798 226.541 155.126 227.169 155.564 227.552C155.865 227.839 156.487 228.113 157.43 228.373C158.373 228.632 158.989 228.769 159.276 228.783V230.239H147.525V228.783C148.14 228.728 148.783 228.626 149.452 228.475C150.136 228.325 150.662 228.099 151.032 227.798C151.51 227.416 151.838 226.828 152.016 226.035C152.194 225.242 152.283 223.916 152.283 222.056V207.168C152.283 206.306 152.18 205.602 151.975 205.055C151.77 204.508 151.476 204.064 151.093 203.722C150.669 203.353 150.15 203.08 149.535 202.902C148.919 202.724 148.311 202.622 147.709 202.594V201.138H157.635L165.961 222.959L173.077 204.707C173.337 204.037 173.556 203.339 173.734 202.615C173.925 201.877 174.028 201.384 174.041 201.138H183.536V202.594C183.154 202.608 182.661 202.669 182.06 202.779C181.472 202.888 181.041 202.991 180.768 203.086C180.303 203.251 179.989 203.524 179.825 203.907C179.66 204.29 179.578 204.707 179.578 205.158V226.137C179.578 226.616 179.66 227.019 179.825 227.347C179.989 227.675 180.303 227.962 180.768 228.209C181.014 228.345 181.452 228.475 182.08 228.598C182.709 228.708 183.208 228.769 183.577 228.783V230.239Z" fill="black"/>
<path d="M295.878 274.402H288.044C286.308 271.682 284.736 269.33 283.327 267.348C281.933 265.365 280.415 263.321 278.775 261.216H275.801V270.444C275.801 270.923 275.876 271.347 276.027 271.716C276.177 272.071 276.498 272.345 276.991 272.536C277.237 272.632 277.667 272.721 278.283 272.803C278.898 272.885 279.417 272.933 279.841 272.946V274.402H267.536V272.946C267.865 272.919 268.336 272.871 268.952 272.803C269.58 272.734 270.018 272.646 270.264 272.536C270.674 272.359 270.968 272.099 271.146 271.757C271.337 271.415 271.433 270.978 271.433 270.444V249.403C271.433 248.925 271.365 248.501 271.228 248.132C271.091 247.763 270.77 247.483 270.264 247.291C269.922 247.168 269.478 247.059 268.931 246.963C268.384 246.854 267.919 246.785 267.536 246.758V245.302H280.969C282.2 245.302 283.355 245.432 284.435 245.692C285.515 245.938 286.493 246.341 287.368 246.901C288.215 247.448 288.892 248.166 289.398 249.055C289.904 249.93 290.157 250.989 290.157 252.234C290.157 253.355 289.986 254.346 289.644 255.207C289.302 256.068 288.796 256.814 288.126 257.443C287.511 258.03 286.773 258.543 285.911 258.981C285.05 259.404 284.1 259.767 283.061 260.068C284.496 261.968 285.686 263.568 286.629 264.866C287.586 266.165 288.755 267.744 290.136 269.604C290.738 270.424 291.278 271.032 291.756 271.429C292.248 271.812 292.734 272.126 293.212 272.372C293.568 272.55 294.012 272.687 294.545 272.782C295.078 272.878 295.523 272.933 295.878 272.946V274.402ZM285.091 252.705C285.091 250.942 284.585 249.547 283.574 248.522C282.562 247.483 281.133 246.963 279.287 246.963H275.801V259.452H278.488C280.374 259.452 281.947 258.851 283.204 257.648C284.462 256.431 285.091 254.783 285.091 252.705Z" fill="black"/>
<path d="M263.886 274.402H250.782V272.946C251.151 272.919 251.684 272.878 252.381 272.823C253.078 272.769 253.571 272.687 253.858 272.577C254.309 272.4 254.637 272.16 254.842 271.859C255.047 271.545 255.15 271.114 255.15 270.568V249.485C255.15 249.007 255.075 248.61 254.924 248.296C254.774 247.968 254.418 247.694 253.858 247.476C253.448 247.312 252.928 247.161 252.299 247.025C251.684 246.874 251.178 246.785 250.782 246.758V245.302H263.886V246.758C263.462 246.772 262.956 246.826 262.368 246.922C261.781 247.004 261.268 247.113 260.83 247.25C260.311 247.414 259.962 247.681 259.785 248.05C259.607 248.419 259.518 248.829 259.518 249.28V270.342C259.518 270.793 259.614 271.196 259.805 271.552C260.01 271.894 260.352 272.167 260.83 272.372C261.118 272.482 261.582 272.605 262.225 272.741C262.881 272.864 263.435 272.933 263.886 272.946V274.402Z" fill="black"/>
<path d="M250.125 274.402H238.005V272.946C239.072 272.878 239.953 272.741 240.651 272.536C241.362 272.331 241.717 272.078 241.717 271.777C241.717 271.654 241.703 271.504 241.676 271.326C241.649 271.149 241.608 270.991 241.553 270.855L239.133 264.333H228.941C228.558 265.29 228.243 266.124 227.997 266.835C227.765 267.546 227.553 268.202 227.362 268.804C227.184 269.392 227.061 269.87 226.993 270.239C226.924 270.609 226.89 270.909 226.89 271.142C226.89 271.689 227.321 272.112 228.182 272.413C229.043 272.714 230.014 272.892 231.094 272.946V274.402H220.143V272.946C220.498 272.919 220.943 272.844 221.476 272.721C222.009 272.584 222.447 272.406 222.788 272.188C223.335 271.818 223.759 271.436 224.06 271.039C224.361 270.629 224.655 270.068 224.942 269.358C226.405 265.707 228.018 261.606 229.782 257.053C231.545 252.5 233.118 248.446 234.498 244.892H236.139L245.839 269.993C246.044 270.526 246.277 270.957 246.536 271.285C246.796 271.613 247.159 271.935 247.623 272.249C247.938 272.441 248.348 272.605 248.854 272.741C249.36 272.864 249.784 272.933 250.125 272.946V274.402ZM238.395 262.508L233.986 251.229L229.659 262.508H238.395Z" fill="black"/>
<path d="M221.004 265.748L220.389 274.402H197.646V272.946C197.974 272.919 198.446 272.871 199.061 272.803C199.69 272.734 200.127 272.646 200.373 272.536C200.784 272.359 201.077 272.099 201.255 271.757C201.447 271.415 201.542 270.978 201.542 270.444V249.609C201.542 249.144 201.46 248.734 201.296 248.378C201.146 248.023 200.838 247.735 200.373 247.517C200.059 247.353 199.615 247.195 199.04 247.045C198.48 246.881 198.015 246.785 197.646 246.758V245.302H209.93V246.758C209.547 246.772 209.048 246.84 208.433 246.963C207.831 247.086 207.394 247.195 207.12 247.291C206.656 247.455 206.334 247.735 206.157 248.132C205.993 248.528 205.91 248.952 205.91 249.403V268.947C205.91 269.85 205.952 270.554 206.034 271.06C206.129 271.552 206.341 271.935 206.669 272.208C206.984 272.454 207.449 272.618 208.064 272.7C208.693 272.769 209.568 272.803 210.689 272.803C211.195 272.803 211.721 272.789 212.268 272.762C212.815 272.734 213.334 272.68 213.827 272.598C214.305 272.516 214.743 272.406 215.139 272.27C215.549 272.119 215.85 271.935 216.041 271.716C216.602 271.087 217.251 270.137 217.99 268.865C218.742 267.58 219.261 266.541 219.548 265.748H221.004Z" fill="black"/>
<path d="M183.475 275.079C181.739 275.079 180.071 274.737 178.471 274.054C176.885 273.37 175.477 272.386 174.246 271.101C173.03 269.816 172.059 268.25 171.334 266.404C170.61 264.545 170.247 262.453 170.247 260.129C170.247 257.805 170.603 255.699 171.314 253.813C172.025 251.912 173.009 250.278 174.267 248.911C175.511 247.558 176.981 246.512 178.676 245.774C180.371 245.035 182.183 244.666 184.111 244.666C185.546 244.666 186.845 244.844 188.007 245.199C189.169 245.555 190.277 246.054 191.329 246.696L192.17 245.302H193.811L193.995 255.679H192.314C192.095 254.667 191.767 253.573 191.329 252.398C190.892 251.208 190.379 250.203 189.791 249.383C189.135 248.453 188.356 247.729 187.453 247.209C186.551 246.676 185.519 246.409 184.357 246.409C183.031 246.409 181.793 246.703 180.645 247.291C179.51 247.879 178.526 248.747 177.692 249.896C176.899 251.003 176.277 252.411 175.826 254.12C175.374 255.829 175.149 257.736 175.149 259.842C175.149 261.701 175.381 263.41 175.846 264.969C176.325 266.514 177.001 267.874 177.876 269.05C178.751 270.212 179.784 271.121 180.973 271.777C182.176 272.434 183.516 272.762 184.993 272.762C186.1 272.762 187.118 272.591 188.048 272.249C188.978 271.894 189.785 271.429 190.468 270.855C191.152 270.253 191.753 269.569 192.273 268.804C192.792 268.038 193.216 267.204 193.544 266.302L195.082 267.04C193.907 269.925 192.348 271.989 190.407 273.234C188.465 274.464 186.155 275.079 183.475 275.079Z" fill="black"/>
<path d="M315.48 300.347V300.847H147.132V300.347H315.48Z" fill="black"/>
<path d="M265.9 317.56L265.742 320.009H258.839V319.593C258.957 319.585 259.113 319.569 259.308 319.546C259.504 319.519 259.63 319.491 259.689 319.464C259.814 319.405 259.9 319.329 259.947 319.235C259.998 319.142 260.023 319.022 260.023 318.878V312.901C260.023 312.772 260.002 312.659 259.959 312.562C259.916 312.46 259.826 312.378 259.689 312.315C259.584 312.265 259.441 312.22 259.261 312.181C259.086 312.142 258.945 312.118 258.839 312.11V311.694H265.273V313.698H264.834C264.755 313.401 264.586 313.087 264.324 312.755C264.066 312.419 263.82 312.235 263.586 312.204C263.464 312.188 263.32 312.177 263.152 312.169C262.984 312.161 262.793 312.157 262.578 312.157H261.271V315.462H262.209C262.509 315.462 262.728 315.435 262.865 315.38C263.005 315.321 263.129 315.226 263.234 315.093C263.32 314.979 263.392 314.829 263.451 314.642C263.513 314.45 263.554 314.271 263.574 314.103H264.013V317.354H263.574C263.558 317.167 263.515 316.97 263.445 316.763C263.379 316.552 263.308 316.399 263.234 316.306C263.113 316.153 262.974 316.054 262.818 316.007C262.666 315.96 262.463 315.937 262.209 315.937H261.271V318.433C261.271 318.683 261.289 318.88 261.324 319.024C261.359 319.169 261.427 319.278 261.529 319.353C261.63 319.427 261.769 319.476 261.945 319.499C262.121 319.519 262.371 319.528 262.695 319.528C262.824 319.528 262.994 319.528 263.205 319.528C263.416 319.528 263.593 319.521 263.738 319.505C263.886 319.489 264.039 319.462 264.195 319.423C264.355 319.38 264.468 319.323 264.535 319.253C264.714 319.065 264.902 318.782 265.097 318.403C265.297 318.021 265.423 317.739 265.478 317.56H265.9Z" fill="black"/>
<path d="M257.867 320.009H254.123V319.593C254.228 319.585 254.38 319.573 254.58 319.558C254.779 319.542 254.92 319.519 255.002 319.487C255.13 319.437 255.224 319.368 255.283 319.282C255.341 319.192 255.371 319.069 255.371 318.913V312.89C255.371 312.753 255.349 312.64 255.306 312.55C255.263 312.456 255.162 312.378 255.002 312.315C254.884 312.269 254.736 312.226 254.556 312.187C254.38 312.144 254.236 312.118 254.123 312.11V311.694H257.867V312.11C257.746 312.114 257.601 312.13 257.433 312.157C257.265 312.181 257.119 312.212 256.994 312.251C256.845 312.298 256.746 312.374 256.695 312.479C256.644 312.585 256.619 312.702 256.619 312.831V318.849C256.619 318.978 256.646 319.093 256.701 319.194C256.759 319.292 256.857 319.37 256.994 319.429C257.076 319.46 257.209 319.495 257.392 319.534C257.58 319.569 257.738 319.589 257.867 319.593V320.009Z" fill="black"/>
<path d="M253.906 320.009H251.668C251.172 319.231 250.722 318.56 250.32 317.993C249.922 317.427 249.488 316.843 249.019 316.241H248.17V318.878C248.17 319.015 248.191 319.136 248.234 319.241C248.277 319.343 248.369 319.421 248.509 319.476C248.58 319.503 248.703 319.528 248.879 319.552C249.054 319.575 249.203 319.589 249.324 319.593V320.009H245.808V319.593C245.902 319.585 246.037 319.571 246.213 319.552C246.392 319.532 246.517 319.507 246.588 319.476C246.705 319.425 246.789 319.351 246.839 319.253C246.894 319.155 246.922 319.03 246.922 318.878V312.866C246.922 312.729 246.902 312.608 246.863 312.503C246.824 312.397 246.732 312.317 246.588 312.263C246.49 312.228 246.363 312.196 246.207 312.169C246.05 312.138 245.918 312.118 245.808 312.11V311.694H249.646C249.998 311.694 250.328 311.731 250.636 311.806C250.945 311.876 251.224 311.991 251.474 312.151C251.716 312.308 251.91 312.513 252.054 312.767C252.199 313.017 252.271 313.319 252.271 313.675C252.271 313.995 252.222 314.278 252.125 314.524C252.027 314.771 251.882 314.983 251.691 315.163C251.515 315.331 251.304 315.478 251.058 315.603C250.812 315.724 250.541 315.827 250.244 315.913C250.654 316.456 250.994 316.913 251.263 317.284C251.537 317.655 251.871 318.106 252.265 318.638C252.437 318.872 252.591 319.046 252.728 319.159C252.869 319.269 253.007 319.358 253.144 319.429C253.246 319.479 253.373 319.519 253.525 319.546C253.677 319.573 253.804 319.589 253.906 319.593V320.009ZM250.824 313.81C250.824 313.306 250.679 312.907 250.39 312.614C250.101 312.317 249.693 312.169 249.166 312.169H248.17V315.737H248.937C249.476 315.737 249.925 315.565 250.285 315.222C250.644 314.874 250.824 314.403 250.824 313.81Z" fill="black"/>
<path d="M244.959 317.56L244.8 320.009H237.898V319.593C238.015 319.585 238.172 319.569 238.367 319.546C238.562 319.519 238.689 319.491 238.748 319.464C238.873 319.405 238.959 319.329 239.005 319.235C239.056 319.142 239.082 319.022 239.082 318.878V312.901C239.082 312.772 239.06 312.659 239.017 312.562C238.974 312.46 238.884 312.378 238.748 312.315C238.642 312.265 238.5 312.22 238.32 312.181C238.144 312.142 238.004 312.118 237.898 312.11V311.694H244.332V313.698H243.892C243.814 313.401 243.644 313.087 243.382 312.755C243.125 312.419 242.879 312.235 242.644 312.204C242.523 312.188 242.379 312.177 242.211 312.169C242.043 312.161 241.851 312.157 241.636 312.157H240.33V315.462H241.267C241.568 315.462 241.787 315.435 241.923 315.38C242.064 315.321 242.187 315.226 242.293 315.093C242.379 314.979 242.451 314.829 242.509 314.642C242.572 314.45 242.613 314.271 242.632 314.103H243.072V317.354H242.632C242.617 317.167 242.574 316.97 242.504 316.763C242.437 316.552 242.367 316.399 242.293 316.306C242.172 316.153 242.033 316.054 241.877 316.007C241.724 315.96 241.521 315.937 241.267 315.937H240.33V318.433C240.33 318.683 240.347 318.88 240.382 319.024C240.418 319.169 240.486 319.278 240.588 319.353C240.689 319.427 240.828 319.476 241.004 319.499C241.179 319.519 241.429 319.528 241.754 319.528C241.882 319.528 242.052 319.528 242.263 319.528C242.474 319.528 242.652 319.521 242.797 319.505C242.945 319.489 243.097 319.462 243.254 319.423C243.414 319.38 243.527 319.323 243.593 319.253C243.773 319.065 243.961 318.782 244.156 318.403C244.355 318.021 244.482 317.739 244.537 317.56H244.959Z" fill="black"/>
<path d="M236.404 316.194C236.58 316.39 236.709 316.604 236.791 316.839C236.877 317.069 236.92 317.339 236.92 317.647C236.92 318.382 236.648 318.987 236.105 319.464C235.562 319.94 234.888 320.179 234.084 320.179C233.713 320.179 233.341 320.122 232.97 320.009C232.599 319.892 232.279 319.751 232.009 319.587L231.757 320.015H231.289L231.207 317.167H231.681C231.779 317.519 231.892 317.837 232.021 318.122C232.154 318.403 232.328 318.667 232.543 318.913C232.746 319.144 232.982 319.327 233.252 319.464C233.525 319.601 233.841 319.669 234.201 319.669C234.47 319.669 234.705 319.634 234.904 319.563C235.107 319.493 235.271 319.394 235.396 319.265C235.521 319.136 235.613 318.985 235.672 318.813C235.734 318.638 235.765 318.437 235.765 318.21C235.765 317.878 235.672 317.569 235.484 317.284C235.297 316.995 235.017 316.776 234.646 316.628C234.392 316.526 234.101 316.415 233.773 316.294C233.445 316.169 233.162 316.052 232.923 315.942C232.455 315.731 232.089 315.456 231.828 315.116C231.57 314.772 231.441 314.325 231.441 313.774C231.441 313.458 231.505 313.163 231.634 312.89C231.763 312.616 231.947 312.372 232.185 312.157C232.412 311.954 232.679 311.796 232.988 311.683C233.297 311.565 233.619 311.507 233.955 311.507C234.338 311.507 234.679 311.565 234.98 311.683C235.285 311.8 235.562 311.937 235.812 312.093L236.052 311.694H236.521L236.568 314.454H236.093C236.007 314.138 235.91 313.835 235.8 313.546C235.695 313.257 235.556 312.995 235.384 312.761C235.216 312.534 235.011 312.354 234.769 312.222C234.527 312.085 234.23 312.017 233.879 312.017C233.507 312.017 233.191 312.136 232.929 312.374C232.668 312.612 232.537 312.903 232.537 313.247C232.537 313.606 232.621 313.905 232.789 314.144C232.957 314.378 233.201 314.571 233.521 314.724C233.806 314.86 234.086 314.979 234.359 315.081C234.636 315.179 234.904 315.284 235.162 315.397C235.396 315.499 235.621 315.614 235.836 315.743C236.054 315.872 236.244 316.022 236.404 316.194Z" fill="black"/>
<path d="M229.666 316.194C229.841 316.39 229.97 316.604 230.052 316.839C230.138 317.069 230.181 317.339 230.181 317.647C230.181 318.382 229.91 318.987 229.367 319.464C228.824 319.94 228.15 320.179 227.345 320.179C226.974 320.179 226.603 320.122 226.232 320.009C225.861 319.892 225.541 319.751 225.271 319.587L225.019 320.015H224.55L224.468 317.167H224.943C225.041 317.519 225.154 317.837 225.283 318.122C225.416 318.403 225.589 318.667 225.804 318.913C226.007 319.144 226.244 319.327 226.513 319.464C226.787 319.601 227.103 319.669 227.463 319.669C227.732 319.669 227.966 319.634 228.166 319.563C228.369 319.493 228.533 319.394 228.658 319.265C228.783 319.136 228.875 318.985 228.933 318.813C228.996 318.638 229.027 318.437 229.027 318.21C229.027 317.878 228.933 317.569 228.746 317.284C228.558 316.995 228.279 316.776 227.908 316.628C227.654 316.526 227.363 316.415 227.035 316.294C226.707 316.169 226.423 316.052 226.185 315.942C225.716 315.731 225.351 315.456 225.089 315.116C224.832 314.772 224.703 314.325 224.703 313.774C224.703 313.458 224.767 313.163 224.896 312.89C225.025 312.616 225.209 312.372 225.447 312.157C225.673 311.954 225.941 311.796 226.25 311.683C226.558 311.565 226.88 311.507 227.216 311.507C227.599 311.507 227.941 311.565 228.242 311.683C228.547 311.8 228.824 311.937 229.074 312.093L229.314 311.694H229.783L229.83 314.454H229.355C229.269 314.138 229.172 313.835 229.062 313.546C228.957 313.257 228.818 312.995 228.646 312.761C228.478 312.534 228.273 312.354 228.031 312.222C227.789 312.085 227.492 312.017 227.14 312.017C226.769 312.017 226.453 312.136 226.191 312.374C225.929 312.612 225.798 312.903 225.798 313.247C225.798 313.606 225.882 313.905 226.05 314.144C226.218 314.378 226.463 314.571 226.783 314.724C227.068 314.86 227.347 314.979 227.621 315.081C227.898 315.179 228.166 315.284 228.423 315.397C228.658 315.499 228.882 315.614 229.097 315.743C229.316 315.872 229.505 316.022 229.666 316.194Z" fill="black"/>
<path d="M223.449 320.009H219.705V319.593C219.81 319.585 219.963 319.573 220.162 319.558C220.361 319.542 220.502 319.519 220.584 319.487C220.713 319.437 220.806 319.368 220.865 319.282C220.923 319.192 220.953 319.069 220.953 318.913V312.89C220.953 312.753 220.931 312.64 220.888 312.55C220.845 312.456 220.744 312.378 220.584 312.315C220.466 312.269 220.318 312.226 220.138 312.187C219.963 312.144 219.818 312.118 219.705 312.11V311.694H223.449V312.11C223.328 312.114 223.183 312.13 223.015 312.157C222.847 312.181 222.701 312.212 222.576 312.251C222.427 312.298 222.328 312.374 222.277 312.479C222.226 312.585 222.201 312.702 222.201 312.831V318.849C222.201 318.978 222.228 319.093 222.283 319.194C222.341 319.292 222.439 319.37 222.576 319.429C222.658 319.46 222.791 319.495 222.974 319.534C223.162 319.569 223.32 319.589 223.449 319.593V320.009Z" fill="black"/>
<path d="M219.142 313.95H218.738C218.703 313.81 218.638 313.644 218.545 313.452C218.455 313.257 218.353 313.073 218.24 312.901C218.123 312.722 217.994 312.565 217.853 312.433C217.716 312.296 217.584 312.218 217.455 312.198C217.334 312.183 217.181 312.171 216.998 312.163C216.814 312.155 216.644 312.151 216.488 312.151H216.148V318.802C216.148 318.931 216.175 319.05 216.23 319.159C216.285 319.265 216.38 319.347 216.517 319.405C216.588 319.433 216.734 319.47 216.957 319.517C217.183 319.563 217.359 319.589 217.484 319.593V320.009H213.558V319.593C213.668 319.585 213.834 319.569 214.056 319.546C214.283 319.522 214.439 319.493 214.525 319.458C214.654 319.407 214.748 319.335 214.806 319.241C214.869 319.144 214.9 319.015 214.9 318.854V312.151H214.56C214.439 312.151 214.289 312.155 214.109 312.163C213.929 312.167 213.757 312.179 213.593 312.198C213.464 312.214 213.33 312.292 213.189 312.433C213.052 312.569 212.925 312.726 212.808 312.901C212.691 313.077 212.588 313.265 212.498 313.464C212.408 313.659 212.345 313.821 212.31 313.95H211.9V311.694H219.142V313.95Z" fill="black"/>
<path d="M212.088 320.009H208.625V319.593C208.929 319.573 209.181 319.534 209.38 319.476C209.584 319.417 209.685 319.345 209.685 319.259C209.685 319.224 209.681 319.181 209.673 319.13C209.666 319.079 209.654 319.034 209.638 318.995L208.947 317.132H206.035C205.925 317.405 205.836 317.644 205.765 317.847C205.699 318.05 205.638 318.237 205.584 318.409C205.533 318.577 205.498 318.714 205.478 318.819C205.459 318.925 205.449 319.011 205.449 319.077C205.449 319.233 205.572 319.354 205.818 319.44C206.064 319.526 206.341 319.577 206.65 319.593V320.009H203.521V319.593C203.623 319.585 203.75 319.563 203.902 319.528C204.054 319.489 204.179 319.438 204.277 319.376C204.433 319.271 204.554 319.161 204.64 319.048C204.726 318.931 204.81 318.771 204.892 318.567C205.31 317.524 205.771 316.353 206.275 315.052C206.779 313.751 207.228 312.593 207.623 311.577H208.091L210.863 318.749C210.922 318.901 210.988 319.024 211.062 319.118C211.136 319.212 211.24 319.304 211.373 319.394C211.463 319.448 211.58 319.495 211.724 319.534C211.869 319.569 211.99 319.589 212.088 319.593V320.009ZM208.736 316.61L207.476 313.388L206.24 316.61H208.736ZM209.773 310.991L209.492 311.179L207.857 309.937L206.246 311.179L205.964 310.991L207.336 309.327C207.406 309.241 207.474 309.177 207.541 309.134C207.611 309.087 207.724 309.063 207.88 309.063C208.041 309.063 208.15 309.085 208.209 309.128C208.271 309.171 208.332 309.229 208.39 309.304L209.773 310.991Z" fill="black"/>
<path d="M203.375 313.745C203.375 314.179 203.289 314.563 203.117 314.899C202.949 315.231 202.714 315.507 202.414 315.726C202.117 315.944 201.791 316.104 201.435 316.206C201.08 316.308 200.703 316.358 200.304 316.358H199.373V318.878C199.373 319.015 199.394 319.136 199.437 319.241C199.484 319.343 199.578 319.421 199.718 319.476C199.789 319.503 199.912 319.528 200.088 319.552C200.267 319.575 200.431 319.589 200.58 319.593V320.009H197.011V319.593C197.105 319.585 197.24 319.571 197.416 319.552C197.595 319.532 197.72 319.507 197.791 319.476C197.908 319.425 197.992 319.351 198.043 319.253C198.097 319.155 198.125 319.03 198.125 318.878V312.878C198.125 312.741 198.105 312.618 198.066 312.509C198.027 312.399 197.935 312.317 197.791 312.263C197.642 312.212 197.494 312.177 197.345 312.157C197.201 312.134 197.076 312.118 196.97 312.11V311.694H200.767C201.541 311.694 202.168 311.882 202.648 312.257C203.132 312.628 203.375 313.124 203.375 313.745ZM201.593 315.163C201.726 314.976 201.814 314.782 201.857 314.583C201.9 314.38 201.922 314.198 201.922 314.038C201.922 313.815 201.894 313.589 201.839 313.358C201.789 313.128 201.699 312.927 201.57 312.755C201.433 312.571 201.254 312.429 201.031 312.327C200.808 312.226 200.531 312.175 200.199 312.175H199.373V315.849H199.97C200.392 315.849 200.734 315.784 200.996 315.655C201.261 315.522 201.461 315.358 201.593 315.163Z" fill="black"/>
</svg>
