<svg width="147" height="147" viewBox="0 0 147 147" fill="none" xmlns="http://www.w3.org/2000/svg">
<mask id="mask0_1_314" style="mask-type:luminance" maskUnits="userSpaceOnUse" x="0" y="0" width="148" height="147">
<path d="M147.003 50.5205L50.6489 0.00836182L9.16785e-05 96.4799L96.3538 146.992L147.003 50.5205Z" fill="white"/>
<path d="M59.6517 24.6345L43.9754 16.4166C43.9009 16.3775 43.7355 16.546 43.6059 16.7929L10.6538 79.5564C10.5242 79.8032 10.4795 80.035 10.554 80.074L26.2303 88.292C26.3047 88.331 26.4701 88.1626 26.5997 87.9157L59.5518 25.1522C59.6814 24.9053 59.7261 24.6736 59.6517 24.6345Z" fill="black"/>
</mask>
<g mask="url(#mask0_1_314)">
<path d="M75.9789 22.1179C95.7263 22.6309 113.549 33.7586 121.243 50.3258L121.243 50.3259C128.063 65.0948 125.822 84.9417 118.074 101.429L117.929 101.36L117.783 101.292C125.505 84.8575 127.717 65.1151 120.951 50.4613L120.77 50.0769C113.037 33.8432 95.4542 22.9459 75.9705 22.4397C56.3255 21.9294 38.37 30.3028 28.8799 46.6569L28.8798 46.6572C19.7539 62.3174 20.2058 82.1223 29.2723 99.3331L29.2728 99.3337C36.9353 114.019 53.5716 125.41 71.7638 126.943C89.9469 128.475 107.193 119.74 117.055 102.679L117.194 102.759L117.334 102.84C107.411 120.007 90.0463 128.807 71.7368 127.264C53.4367 125.722 36.7022 114.267 28.9876 99.4831L28.9875 99.4834C19.877 82.1892 19.4117 62.2651 28.6015 46.4953C38.1615 30.0207 56.2395 21.6051 75.9789 22.1179Z" fill="white"/>
</g>
<path d="M53.9934 25.1707L54.0412 25.3126L53.7804 25.4615L53.6885 27.9735C53.6545 28.9172 53.4573 29.3606 53.0864 29.4855C52.8621 29.561 52.6267 29.5129 52.5636 29.3406C52.5494 29.2078 52.6576 29.1052 52.7904 29.0605C52.9185 29.0173 53.0332 29.0398 53.1907 29.1141L53.2397 29.1384C53.4177 28.8951 53.484 28.562 53.4921 28.2077L53.4978 28.0886L51.8209 26.106L51.514 26.1635L51.4662 26.0217L52.6016 25.6394L52.6509 25.7858L52.2284 25.9841L53.5147 27.5786L53.553 25.5432L53.0843 25.6348L53.0366 25.4929L53.9934 25.1707Z" fill="white"/>
<path d="M51.4164 28.1734L51.0613 27.4173C50.9046 27.5496 50.7409 27.7011 50.6454 27.8045C50.2972 28.1654 50.3047 28.3859 50.3868 28.5607C50.5099 28.8229 50.7315 28.8629 50.9676 28.752C51.1513 28.6658 51.2412 28.5276 51.4164 28.1734ZM52.2464 28.0771L52.3638 28.134C52.3328 28.3406 52.2391 28.4592 52.086 28.5311C51.863 28.6358 51.6533 28.5529 51.501 28.331C51.3615 28.7271 51.2461 28.936 50.9619 29.0694C50.6121 29.2336 50.2378 29.164 50.0613 28.7881C49.9238 28.4953 49.9938 28.2011 50.4879 27.7078C50.6338 27.5753 50.815 27.4156 50.9956 27.2775L50.9299 27.1376C50.7042 26.6569 50.5045 26.6066 50.1721 26.7626C50.0803 26.8057 49.9838 26.8617 49.8886 26.9544L49.9443 27.323C49.9688 27.4661 49.934 27.5625 49.8203 27.6158C49.711 27.6671 49.6079 27.6409 49.5499 27.5401C49.4734 27.1386 49.714 26.7644 50.1775 26.5468C50.6629 26.3189 51.0016 26.4266 51.2684 26.9947L51.7549 28.0305C51.8739 28.284 51.9808 28.3298 52.0989 28.2744C52.1776 28.2374 52.2136 28.1778 52.2464 28.0771Z" fill="white"/>
<path d="M49.204 29.3422L48.4402 28.0549C48.1166 27.9829 47.9093 28.0217 47.7431 28.1202C47.3775 28.337 47.2285 28.7959 47.6177 29.452C47.9898 30.079 48.4415 30.1872 48.8197 29.963C49.0316 29.8373 49.1426 29.6648 49.204 29.3422ZM49.675 29.4165L50.101 29.2256L50.1798 29.3585L49.523 29.8041L49.3108 29.5033C49.2703 29.8136 49.1381 30.0548 48.8597 30.2199C48.3154 30.5426 47.6705 30.3076 47.2861 29.6598C46.8722 28.9622 47.0133 28.2723 47.5701 27.9422C47.7737 27.8214 48.0258 27.773 48.3566 27.8856L47.6889 26.7603L47.2786 26.9587L47.2022 26.8299L47.7469 26.2712L47.8273 26.2741L48.1917 26.9168L49.675 29.4165Z" fill="white"/>
<path d="M46.4571 28.6744L46.5438 28.7964L46.3372 29.0143L46.9752 31.4455C47.2155 32.3587 47.1548 32.8401 46.8358 33.0667C46.6429 33.2038 46.4036 33.2258 46.2934 33.079C46.2414 32.956 46.3153 32.8265 46.4295 32.7454C46.5398 32.667 46.6561 32.6555 46.8284 32.6811L46.8823 32.6902C46.9824 32.4059 46.9495 32.0679 46.8549 31.7264L46.826 31.6107L44.6473 30.1971L44.3701 30.3408L44.2834 30.2188L45.26 29.5249L45.3495 29.6509L45.0023 29.9627L46.6947 31.1176L46.1431 29.1581L45.7208 29.3811L45.6341 29.2591L46.4571 28.6744Z" fill="white"/>
<path d="M43.2359 31.0408L43.6701 31.5034C43.5392 31.0634 43.6167 30.6665 43.8538 30.4758C43.9743 30.379 44.1409 30.3318 44.2489 30.3812C44.3791 30.543 44.3908 30.6885 44.2439 30.8065C44.1498 30.8822 44.042 30.8946 43.9152 30.8911L43.8262 30.8884C43.7431 31.1473 43.7619 31.4172 43.8766 31.7524L44.1521 32.0947C44.3065 32.2866 44.5403 32.5695 44.7136 32.7771L45.0993 32.5475L45.1962 32.6679L44.2362 33.4397L44.1394 33.3194L44.4117 33.026C44.2497 32.8093 44.0204 32.5166 43.866 32.3248L43.6995 32.1179C43.5058 31.8771 43.3741 31.7289 43.2243 31.5582L42.8681 31.8012L42.7712 31.6808L43.1529 31.0456L43.2359 31.0408Z" fill="white"/>
<path d="M41.6634 33.7778L42.5059 33.0244C42.6644 32.8828 42.6295 32.7714 42.5265 32.6563C42.3011 32.4044 41.9074 32.3483 41.6301 32.5963C41.3673 32.8313 41.2976 33.2822 41.6634 33.7778ZM43.0708 32.772L41.7821 33.9178C42.2623 34.4471 42.7782 34.4586 43.1599 34.1173C43.4156 33.8888 43.485 33.6259 43.4741 33.3312L43.6012 33.3212C43.6854 33.7122 43.5851 34.0999 43.2502 34.3993C42.7461 34.8501 42.0701 34.8262 41.5194 34.2109C40.9817 33.61 41.044 32.8612 41.5193 32.4362C41.937 32.0628 42.4939 32.0766 42.8964 32.5263C42.9801 32.6199 43.0405 32.7019 43.0708 32.772Z" fill="white"/>
<path d="M40.5031 33.4336L40.6225 33.5532L40.448 33.8091L41.4567 36.0359L41.3268 36.1656L39.0324 35.2009L38.776 35.3953L38.6566 35.2758L39.5115 34.4229L39.6309 34.5425L39.3402 34.9076L41.1189 35.7113L40.2873 33.9763L39.9318 34.2423L39.8124 34.1227L40.5031 33.4336Z" fill="white"/>
<path d="M38.0709 37.441L38.8334 36.6067C38.9768 36.4498 38.9309 36.3425 38.8168 36.2383C38.5672 36.0104 38.1698 35.9943 37.9189 36.2688C37.6811 36.5291 37.6571 36.9847 38.0709 37.441ZM39.37 36.2987L38.2032 37.5683C38.7342 38.0466 39.2487 38.0062 39.5941 37.6283C39.8255 37.3751 39.8681 37.1066 39.8275 36.8145L39.953 36.7918C40.0762 37.1724 40.0154 37.5682 39.7123 37.8997C39.2561 38.3989 38.5811 38.4431 37.9713 37.8864C37.3758 37.3426 37.3624 36.5913 37.7926 36.1207C38.1706 35.7071 38.726 35.6649 39.1718 36.0719C39.2645 36.1565 39.3328 36.232 39.37 36.2987Z" fill="white"/>
<path d="M37.4682 40.0396L37.7547 39.7798L37.8758 39.8758L37.1399 40.8025L37.0188 40.7064L37.2287 40.3489C37.0237 40.1801 36.7354 39.9452 36.5386 39.7891L36.1603 39.489C35.7669 39.1768 35.5481 39.1883 35.3559 39.4303C35.2087 39.6156 35.135 39.8716 35.1659 40.2907L35.7637 40.7649C35.9566 40.918 36.2509 41.1453 36.462 41.3066L36.7484 41.0468L36.8695 41.1429L36.1366 42.0657L36.0155 41.9697L36.2224 41.6159C36.0166 41.4403 35.7283 41.2054 35.5354 41.0524L35.3273 40.8873C35.089 40.6982 34.9241 40.5797 34.7402 40.4462L34.4464 40.7618L34.3254 40.6658L34.5574 39.9621L34.6373 39.9391L35.0094 40.185C34.9415 39.7735 35.0192 39.3728 35.2205 39.1194C35.4938 38.7752 35.8401 38.7663 36.3735 39.1895L36.7669 39.5017C36.9636 39.6577 37.2542 39.8821 37.4682 40.0396Z" fill="white"/>
<path d="M32.9992 40.9179C32.8992 41.0542 32.7219 41.0919 32.5816 40.9892C32.4375 40.8836 32.4239 40.7061 32.5239 40.5698C32.6267 40.4295 32.8002 40.389 32.9443 40.4946C33.0846 40.5973 33.102 40.7777 32.9992 40.9179ZM35.5268 42.5179L35.8031 42.2473L35.9277 42.3386L35.2308 43.2889L35.1062 43.1976L35.3011 42.8256C35.0897 42.6647 34.7926 42.4411 34.5939 42.2956L34.3758 42.1357C34.1342 41.9588 33.9784 41.8447 33.7779 41.7098L33.4917 42.051L33.3632 41.9568L33.609 41.1969L33.6908 41.1671L34.2354 41.584L34.8081 42.0034C35.0068 42.149 35.3096 42.3648 35.5268 42.5179Z" fill="white"/>
<path d="M32.5993 44.5193L32.76 44.4C33.2006 44.0782 33.5007 44.0458 33.7701 44.225C34.0877 44.4363 34.1925 44.9063 33.8284 45.453C33.6678 45.6942 33.4857 45.8456 33.2432 45.9918L32.7621 45.695L32.8906 45.502L33.3395 45.673C33.4601 45.5966 33.5685 45.4947 33.6676 45.346C33.9058 44.9882 33.8695 44.7204 33.6524 44.576C33.4553 44.4449 33.2718 44.5027 32.9678 44.7239L32.7576 44.8741C32.4268 45.1181 32.1187 45.2148 31.8212 45.0169C31.5075 44.8082 31.4081 44.3651 31.724 43.8907C31.8793 43.6576 32.0574 43.5208 32.2985 43.4028L32.722 43.7077L32.6043 43.8846L32.1982 43.7189C32.0656 43.7873 31.9625 43.8811 31.8849 43.9977C31.6894 44.2912 31.7271 44.5308 31.9241 44.6619C32.1292 44.7983 32.2886 44.7419 32.5993 44.5193Z" fill="white"/>
<path d="M31.3785 46.4196L31.5352 46.2949C31.9647 45.9586 32.2636 45.9161 32.5388 46.0862C32.8634 46.2868 32.9839 46.7529 32.6383 47.3115C32.4858 47.5579 32.3089 47.7154 32.0715 47.8696L31.5807 47.5891L31.7026 47.3919L32.1571 47.5478C32.275 47.4674 32.3799 47.3619 32.474 47.21C32.7001 46.8444 32.6548 46.578 32.433 46.4409C32.2316 46.3165 32.0502 46.3804 31.7538 46.6117L31.5487 46.7688C31.2262 47.0238 30.9216 47.1307 30.6175 46.9429C30.2971 46.7448 30.1829 46.3053 30.4827 45.8206C30.6301 45.5824 30.8035 45.4398 31.0405 45.3137L31.474 45.6043L31.3622 45.785L30.9509 45.633C30.8206 45.7058 30.7207 45.8031 30.647 45.9222C30.4616 46.222 30.5072 46.4603 30.7085 46.5846C30.9181 46.7141 31.0755 46.6524 31.3785 46.4196Z" fill="white"/>
<path d="M29.8034 49.1429L30.3621 48.1606C30.4671 47.9759 30.3986 47.8814 30.2642 47.8051C29.9703 47.6381 29.5792 47.7104 29.3953 48.0336C29.221 48.3401 29.2987 48.7896 29.8034 49.1429ZM30.8171 47.7415L29.9605 49.2378C30.5844 49.5866 31.0772 49.4333 31.3303 48.9883C31.4998 48.6902 31.4818 48.419 31.3776 48.1432L31.4949 48.0932C31.6994 48.437 31.7278 48.8364 31.5058 49.2268C31.1715 49.8145 30.523 50.0072 29.8049 49.5993C29.1037 49.2009 28.9241 48.4713 29.2393 47.9172C29.5163 47.4302 30.0486 47.266 30.5735 47.5642C30.6827 47.6262 30.7661 47.6847 30.8171 47.7415Z" fill="white"/>
<path d="M30.3383 50.7439L30.5696 50.434L30.7068 50.505L30.1626 51.5556L30.0253 51.4846L30.1627 51.0935C29.929 50.9671 29.6009 50.7919 29.3778 50.6765L28.9489 50.4546C28.5028 50.2238 28.2903 50.277 28.1481 50.5514C28.0393 50.7616 28.016 51.0269 28.1269 51.4322L28.8047 51.7829C29.0235 51.8961 29.356 52.0626 29.5941 52.1804L29.8254 51.8705L29.9626 51.9415L29.4206 52.9878L29.2833 52.9168L29.4185 52.53C29.1827 52.3971 28.8546 52.2219 28.6359 52.1088L28.3999 51.9867C28.1297 51.8469 27.9451 51.7623 27.739 51.6665L27.5113 52.0326L27.374 51.9616L27.4666 51.2265L27.5406 51.1887L27.953 51.3585C27.8073 50.9678 27.8066 50.5596 27.9555 50.2723C28.1576 49.8821 28.4958 49.8069 29.1006 50.1198L29.5467 50.3506C29.7697 50.466 30.0979 50.6304 30.3383 50.7439Z" fill="white"/>
<path d="M26.1205 52.4556C26.0478 52.6082 25.8807 52.6785 25.7236 52.6038C25.5623 52.5271 25.5157 52.3552 25.5884 52.2026C25.6631 52.0456 25.8259 51.9733 25.9873 52.0501C26.1443 52.1247 26.1952 52.2987 26.1205 52.4556ZM28.9032 53.5542L29.1239 53.2367L29.2635 53.303L28.7569 54.3669L28.6174 54.3006L28.7392 53.8986C28.5014 53.7802 28.1676 53.6161 27.9452 53.5104L27.7009 53.3942C27.4305 53.2657 27.256 53.1827 27.0338 53.0877L26.8166 53.4764L26.6727 53.408L26.7718 52.6156L26.8466 52.5709L27.4597 52.8785L28.1009 53.1834C28.3233 53.2891 28.6613 53.4445 28.9032 53.5542Z" fill="white"/>
<path d="M26.0599 55.562L27.4609 56.1674C27.7404 56.0566 27.8938 55.8967 27.9801 55.6973C28.145 55.3161 27.9994 54.8744 27.3255 54.5832C26.6737 54.3016 26.209 54.4269 26.0421 54.8125C25.9731 54.9721 25.9356 55.1926 26.0599 55.562ZM25.5777 55.4115L25.9084 55.5228C25.751 55.1812 25.7514 54.8763 25.8646 54.6148C26.089 54.0963 26.7163 53.8991 27.4434 54.2133C28.1927 54.5371 28.4843 55.1523 28.2388 55.7196C28.1429 55.9412 27.9684 56.1499 27.6128 56.254L28.0251 56.4322C28.2823 56.5433 28.5768 56.6653 28.8511 56.7733L29.1063 56.3417L29.2482 56.403L28.7284 57.6041L28.5865 57.5428L28.7034 57.1146C28.4393 56.9952 28.1575 56.8682 27.8959 56.7552L26.4949 56.1498C26.2112 56.0272 26.023 55.9511 25.8089 55.8744L25.6053 56.2599L25.4634 56.1986L25.5065 55.4544L25.5777 55.4115Z" fill="white"/>
<path d="M24.9496 58.3639L26.3775 58.9029C26.6515 58.7792 26.7972 58.6123 26.8741 58.409C27.021 58.0205 26.8547 57.5862 26.1679 57.3269C25.5036 57.0762 25.0453 57.2232 24.8967 57.6161C24.8352 57.7788 24.8081 58.0008 24.9496 58.3639ZM24.4609 58.2362L24.7965 58.3319C24.6232 57.9981 24.6093 57.6935 24.7101 57.427C24.9099 56.8985 25.5273 56.6721 26.2684 56.9519C27.032 57.2401 27.3522 57.841 27.1336 58.4192C27.0482 58.6451 26.8837 58.8617 26.5334 58.9824L26.9536 59.141C27.2157 59.2399 27.5156 59.348 27.7947 59.443L28.0293 58.9999L28.1739 59.0545L27.7111 60.2786L27.5665 60.224L27.6632 59.7908C27.3938 59.684 27.1063 59.5703 26.8397 59.4697L25.4118 58.9307C25.1226 58.8215 24.9311 58.7544 24.7136 58.6878L24.5283 59.0823L24.3837 59.0278L24.3918 58.2824L24.4609 58.2362Z" fill="white"/>
<path d="M25.7 60.5625L24.9062 60.3017C24.8948 60.5063 24.8926 60.7293 24.9023 60.8697C24.9257 61.3704 25.0913 61.5163 25.2748 61.5766C25.5501 61.667 25.7314 61.5334 25.8129 61.2857C25.8763 61.0931 25.8375 60.9329 25.7 60.5625ZM26.2 59.8931L26.322 59.8468C26.4509 60.0111 26.4729 60.1607 26.4201 60.3212C26.3431 60.5552 26.1388 60.6507 25.8728 60.6091C26.0653 60.9823 26.138 61.2095 26.0398 61.5077C25.9191 61.8746 25.6114 62.0989 25.2168 61.9692C24.9093 61.8682 24.7434 61.6155 24.7238 60.9178C24.7276 60.7208 24.7358 60.4795 24.7593 60.2535L24.6125 60.2052C24.1077 60.0394 23.934 60.1501 23.8193 60.4987C23.7876 60.595 23.7621 60.7035 23.7641 60.8364L24.0705 61.0488C24.1915 61.1292 24.2377 61.2207 24.1984 61.3399C24.1607 61.4546 24.0708 61.5115 23.9577 61.4845C23.6131 61.2645 23.506 60.8329 23.666 60.3467C23.8335 59.8375 24.1444 59.6652 24.741 59.8611L25.8285 60.2184C26.0947 60.3058 26.2014 60.2595 26.2422 60.1357C26.2693 60.0531 26.2507 59.986 26.2 59.8931Z" fill="white"/>
<path d="M25.3493 62.7789L25.5117 62.4228L25.6608 62.4635L25.3501 63.6L25.201 63.5593L25.2534 63.1482C24.9937 63.0723 24.6408 62.971 24.3985 62.9049L23.9325 62.7778C23.4479 62.6455 23.25 62.7467 23.1672 63.0495C23.1036 63.2824 23.1225 63.5428 23.3286 63.9244L24.0649 64.1253C24.3025 64.1901 24.6626 64.2834 24.9248 64.3499L25.0813 63.9972L25.2305 64.0379L24.9185 65.1791L24.7694 65.1384L24.8183 64.7213C24.5633 64.6467 24.2058 64.5441 23.9681 64.4793L21.6476 63.8461L21.4944 64.2598L21.35 64.2204L21.3491 63.4544L21.4101 63.3959L22.1226 63.6104L23.1524 63.8913C22.928 63.5398 22.8338 63.1337 22.9216 62.8123C23.0375 62.3884 23.3477 62.2428 24.0094 62.4233L24.494 62.5556C24.7363 62.6217 25.0917 62.7136 25.3493 62.7789Z" fill="white"/>
<path d="M22.8269 68.1308L23.0344 67.0201C23.0734 66.8113 22.9778 66.7443 22.8259 66.716C22.4935 66.654 22.1473 66.8499 22.0791 67.2153C22.0143 67.5618 22.2345 67.9614 22.8269 68.1308ZM23.3278 66.4756L23.0065 68.1692C23.7101 68.2954 24.1259 67.9898 24.2199 67.4867C24.2829 67.1497 24.1774 66.8991 23.9888 66.6724L24.0834 66.5869C24.3889 66.8452 24.5462 67.2135 24.4637 67.6549C24.3395 68.3194 23.7894 68.713 22.9774 68.5616C22.1844 68.4138 21.7765 67.7827 21.8935 67.1562C21.9964 66.6056 22.446 66.2768 23.0396 66.3875C23.1631 66.4105 23.261 66.4385 23.3278 66.4756Z" fill="white"/>
<path d="M23.8538 69.5005L23.9768 69.079L24.1298 69.1006L23.9521 70.358L23.7991 70.3364L23.7997 69.883C23.5182 69.8385 23.208 69.7899 22.9258 69.7501L20.5438 69.4145L20.444 69.8442L20.2957 69.8233L20.1996 69.054L20.2528 68.9883L20.9873 69.1064L22.9771 69.3868C23.2593 69.4265 23.5709 69.4656 23.8538 69.5005Z" fill="white"/>
<path d="M23.6331 70.5376L23.7631 70.4539C23.903 70.6042 23.9692 70.81 23.9439 71.0549C23.9063 71.42 23.6885 71.6015 23.2801 71.5595C23.1599 71.5471 23.0499 71.531 22.8625 71.5117L21.5699 71.3789L21.5214 71.8496L21.3436 71.8314L21.3364 71.3355L20.6372 71.1472L20.6644 70.883L21.387 70.9864L21.4613 70.2659L21.6824 70.2886L21.6076 71.0139L23.299 71.1877C23.5825 71.2168 23.7145 71.1139 23.7348 70.917C23.7477 70.7921 23.7153 70.682 23.6331 70.5376Z" fill="white"/>
<path d="M23.4682 72.1982L23.5941 72.1083C23.7411 72.2517 23.8171 72.4541 23.8037 72.7C23.7837 73.0664 23.5749 73.2582 23.1649 73.2359C23.0443 73.2294 22.9337 73.2186 22.7456 73.2084L21.448 73.1381L21.4223 73.6106L21.2438 73.6009L21.2127 73.106L20.5052 72.9516L20.5196 72.6864L21.2464 72.7548L21.2858 72.0316L21.5077 72.0437L21.468 72.7717L23.1659 72.8637C23.4505 72.8791 23.5774 72.7699 23.5881 72.5722C23.595 72.4469 23.5573 72.3385 23.4682 72.1982Z" fill="white"/>
<path d="M20.4716 74.4595C20.4704 74.6285 20.3488 74.7629 20.1749 74.7618C19.9962 74.7606 19.8811 74.6247 19.8822 74.4557C19.8834 74.2819 20.0002 74.1475 20.179 74.1486C20.3529 74.1497 20.4727 74.2857 20.4716 74.4595ZM23.4582 74.2757L23.5235 73.8947L23.6781 73.8957L23.6702 75.0738L23.5157 75.0728L23.4556 74.6571C23.19 74.6506 22.8181 74.6434 22.5717 74.6419L22.3012 74.6401C22.0017 74.6382 21.8085 74.637 21.5669 74.6451L21.535 75.0891L21.3756 75.0881L21.1294 74.3285L21.1782 74.2564L21.864 74.2752L22.5741 74.2797C22.8205 74.2813 23.1925 74.2788 23.4582 74.2757Z" fill="white"/>
<path d="M23.4749 75.7789L23.5192 75.3421L23.6737 75.3355L23.7276 76.6042L23.5732 76.6108L23.4914 76.1648C23.2064 76.1722 22.8925 76.1808 22.6077 76.193L20.2043 76.2958L20.1843 76.7364L20.0347 76.7428L19.8002 76.0038L19.8406 75.9295L20.5844 75.9122L22.5922 75.8263C22.8769 75.8142 23.1904 75.7959 23.4749 75.7789Z" fill="white"/>
<path d="M22.9156 80.3411L22.7038 79.2559L21.1697 80.1211L22.9156 80.3411ZM23.6902 78.232L23.6544 77.7962L23.8251 77.7629L24.0923 79.1324L23.9216 79.1658L23.7677 78.6547L22.8853 79.1516L23.1229 80.3695L24.117 80.4952L24.0816 79.9856L24.2523 79.9522L24.4742 81.0896L24.3035 81.1229L24.1634 80.7075L20.6878 80.2496L20.636 79.9842L23.6902 78.232Z" fill="white"/>
<path d="M74.5568 39.7679C76.826 41.1634 77.9364 44.1086 77.9364 47.2683C77.9364 50.4334 76.8245 53.8606 74.5904 56.2651L74.4725 56.3918L74.3546 56.2651C72.1205 53.8606 71.0085 50.4334 71.0085 47.2683C71.0086 44.1086 72.119 41.1634 74.3882 39.7679L74.4725 39.716L74.5568 39.7679ZM74.4725 40.0948C72.3934 41.4292 71.3305 44.206 71.3305 47.2683C71.3305 50.3094 72.3817 53.5869 74.4725 55.9151C76.5633 53.5869 77.6145 50.3094 77.6145 47.2683C77.6145 44.206 76.5516 41.4292 74.4725 40.0948Z" fill="white"/>
<path d="M74.569 40.582V55.4782H74.376V40.582H74.569Z" fill="white"/>
<path d="M101.984 65.2282C101.861 65.2326 101.671 65.2678 101.416 65.3339C101.161 65.3999 100.978 65.4681 100.868 65.5386C100.71 65.6486 100.602 65.8599 100.545 66.1724C100.492 66.485 100.465 66.8811 100.465 67.3609V74.2212H99.8909L94.2125 66.5554V71.3886C94.2125 71.9301 94.2455 72.346 94.3115 72.6366C94.382 72.9271 94.4876 73.134 94.6285 73.2572C94.7297 73.3541 94.9388 73.4443 95.2557 73.5279C95.5727 73.6116 95.7818 73.6556 95.883 73.66V74.1288H92.0402V73.66C92.159 73.6512 92.3593 73.6094 92.641 73.5345C92.9228 73.4553 93.0988 73.3849 93.1693 73.3233C93.3233 73.2 93.429 73.0129 93.4862 72.762C93.5434 72.5067 93.572 72.0731 93.572 71.4613V66.8459C93.572 66.6434 93.5368 66.4409 93.4664 66.2385C93.396 66.036 93.3013 65.8797 93.1825 65.7697C93.024 65.6244 92.8083 65.5011 92.5354 65.3999C92.2669 65.2943 92.049 65.237 91.8817 65.2282V64.7594H94.5558L99.8249 71.9037V67.4468C99.8249 66.9009 99.7897 66.4828 99.7192 66.1922C99.6488 65.8973 99.5476 65.7014 99.4155 65.6046C99.2922 65.521 99.0898 65.4395 98.808 65.3603C98.5307 65.2811 98.3194 65.237 98.1742 65.2282V64.7594H101.984V65.2282Z" fill="white"/>
<path d="M89.8745 65.8687C90.2883 66.3001 90.6118 66.8217 90.8451 67.4336C91.0784 68.041 91.1951 68.7145 91.1951 69.454C91.1951 70.1979 91.0762 70.8736 90.8385 71.4811C90.6008 72.0885 90.2707 72.6058 89.8481 73.0327C89.4387 73.4553 88.9633 73.7811 88.4219 74.01C87.8805 74.2388 87.3038 74.3533 86.6919 74.3533C86.0405 74.3533 85.4374 74.2322 84.8828 73.9901C84.3325 73.7436 83.8593 73.4025 83.4632 72.9667C83.067 72.5397 82.7545 72.0225 82.5256 71.4151C82.3011 70.8032 82.1888 70.1495 82.1888 69.454C82.1888 68.6925 82.3077 68.0146 82.5454 67.4204C82.7831 66.8217 83.111 66.3045 83.5292 65.8687C83.943 65.4373 84.4228 65.1072 84.9686 64.8783C85.5189 64.6494 86.0933 64.5349 86.6919 64.5349C87.3126 64.5349 87.8981 64.6516 88.4483 64.8849C88.9985 65.1182 89.4739 65.4461 89.8745 65.8687ZM88.8907 72.5111C89.1372 72.1105 89.3155 71.6572 89.4255 71.1509C89.54 70.6447 89.5972 70.0791 89.5972 69.454C89.5972 68.8114 89.5334 68.2215 89.4057 67.6845C89.2824 67.1474 89.0998 66.6897 88.8577 66.3111C88.6156 65.9369 88.3118 65.6464 87.9465 65.4395C87.5811 65.2282 87.1629 65.1226 86.6919 65.1226C86.1637 65.1226 85.7147 65.2436 85.345 65.4857C84.9752 65.7278 84.6737 66.0514 84.4404 66.4564C84.2203 66.8437 84.0552 67.2971 83.9452 67.8165C83.8395 68.336 83.7867 68.8818 83.7867 69.454C83.7867 70.0879 83.8439 70.6601 83.9584 71.1708C84.0728 71.6814 84.2533 72.1348 84.4998 72.5309C84.7375 72.9183 85.0368 73.222 85.3978 73.4421C85.7588 73.6578 86.1901 73.7656 86.6919 73.7656C87.1629 73.7656 87.5877 73.6556 87.9663 73.4355C88.3449 73.2154 88.653 72.9073 88.8907 72.5111Z" fill="white"/>
<path d="M80.5448 69.8304C80.7429 70.0505 80.8881 70.2926 80.9806 70.5567C81.0774 70.8164 81.1258 71.1201 81.1258 71.4679C81.1258 72.2954 80.8199 72.9777 80.208 73.5148C79.5962 74.0518 78.8369 74.3203 77.9301 74.3203C77.5119 74.3203 77.0937 74.2565 76.6756 74.1288C76.2574 73.9968 75.8964 73.8383 75.5927 73.6534L75.3088 74.1354H74.7805L74.6881 70.9265H75.2229C75.333 71.3226 75.4606 71.6814 75.6059 72.0027C75.7556 72.3196 75.9514 72.6168 76.1935 72.8941C76.4224 73.1538 76.6888 73.3607 76.9925 73.5148C77.3006 73.6688 77.6572 73.7458 78.0621 73.7458C78.3659 73.7458 78.63 73.7062 78.8545 73.627C79.0834 73.5478 79.2682 73.4355 79.4091 73.2903C79.55 73.145 79.6534 72.9755 79.7194 72.7818C79.7899 72.5838 79.8251 72.3571 79.8251 72.1018C79.8251 71.7276 79.7194 71.3798 79.5081 71.0585C79.2969 70.7328 78.9821 70.4863 78.564 70.319C78.2778 70.2046 77.9499 70.0791 77.5801 69.9426C77.2104 69.8018 76.8912 69.6697 76.6227 69.5465C76.0945 69.3088 75.6829 68.9984 75.388 68.6155C75.0975 68.2281 74.9522 67.7241 74.9522 67.1034C74.9522 66.7469 75.0249 66.4145 75.1701 66.1064C75.3154 65.7983 75.5223 65.5232 75.7908 65.2811C76.0461 65.0522 76.3476 64.8739 76.6954 64.7462C77.0431 64.6142 77.4063 64.5482 77.7848 64.5482C78.2162 64.5482 78.6014 64.6142 78.9403 64.7462C79.2837 64.8783 79.5962 65.0324 79.8779 65.2084L80.1486 64.7594H80.6768L80.7297 67.8694H80.1948C80.098 67.5128 79.988 67.1717 79.8647 66.8459C79.7459 66.5202 79.5896 66.2253 79.3959 65.9612C79.2066 65.7058 78.9755 65.5034 78.7026 65.3537C78.4297 65.1996 78.0952 65.1226 77.699 65.1226C77.2808 65.1226 76.9243 65.2569 76.6293 65.5254C76.3344 65.7939 76.1869 66.1218 76.1869 66.5092C76.1869 66.9142 76.2816 67.2509 76.4709 67.5194C76.6601 67.7835 76.9353 68.0014 77.2962 68.1731C77.6175 68.3272 77.9323 68.4614 78.2404 68.5759C78.5529 68.6859 78.8545 68.8048 79.145 68.9324C79.4091 69.0469 79.6622 69.1767 79.9043 69.322C80.1508 69.4672 80.3643 69.6367 80.5448 69.8304Z" fill="white"/>
<path d="M73.5393 74.1288H69.3201V73.66C69.4389 73.6512 69.6106 73.638 69.8351 73.6204C70.0596 73.6028 70.218 73.5764 70.3105 73.5411C70.4557 73.4839 70.5614 73.4069 70.6274 73.31C70.6934 73.2088 70.7265 73.0701 70.7265 72.8941V66.1064C70.7265 65.9523 70.7023 65.8247 70.6538 65.7234C70.6054 65.6178 70.491 65.5298 70.3105 65.4593C70.1784 65.4065 70.0112 65.3581 69.8087 65.3141C69.6106 65.2656 69.4477 65.237 69.3201 65.2282V64.7594H73.5393V65.2282C73.4028 65.2326 73.2399 65.2502 73.0506 65.2811C72.8614 65.3075 72.6963 65.3427 72.5554 65.3867C72.3882 65.4395 72.2759 65.5254 72.2187 65.6442C72.1615 65.7631 72.1329 65.8951 72.1329 66.0404V72.8214C72.1329 72.9667 72.1637 73.0966 72.2253 73.211C72.2913 73.3211 72.4014 73.4091 72.5554 73.4751C72.6479 73.5103 72.7975 73.5499 73.0044 73.594C73.2157 73.6336 73.394 73.6556 73.5393 73.66V74.1288Z" fill="white"/>
<path d="M69.1087 74.1288H65.2065V73.66C65.5498 73.638 65.8337 73.594 66.0582 73.5279C66.2871 73.4619 66.4016 73.3805 66.4016 73.2836C66.4016 73.244 66.3972 73.1956 66.3884 73.1384C66.3796 73.0812 66.3664 73.0305 66.3488 72.9865L65.5696 70.8868H62.288C62.1648 71.195 62.0635 71.4635 61.9843 71.6924C61.9095 71.9213 61.8413 72.1326 61.7796 72.3262C61.7224 72.5155 61.6828 72.6696 61.6608 72.7884C61.6388 72.9073 61.6278 73.0041 61.6278 73.079C61.6278 73.255 61.7664 73.3915 62.0437 73.4883C62.3211 73.5852 62.6336 73.6424 62.9813 73.66V74.1288H59.4554V73.66C59.5699 73.6512 59.713 73.627 59.8846 73.5874C60.0563 73.5434 60.1972 73.4861 60.3072 73.4157C60.4833 73.2968 60.6197 73.1736 60.7166 73.0459C60.8134 72.9139 60.9081 72.7334 61.0005 72.5045C61.4715 71.3292 61.9909 70.0087 62.5588 68.5428C63.1266 67.077 63.6328 65.7719 64.0774 64.6274H64.6056L67.7287 72.7092C67.7948 72.8809 67.8696 73.0195 67.9532 73.1252C68.0369 73.2308 68.1535 73.3343 68.3032 73.4355C68.4044 73.4971 68.5365 73.55 68.6994 73.594C68.8622 73.6336 68.9987 73.6556 69.1087 73.66V74.1288ZM65.3319 70.2992L63.9123 66.6676L62.5191 70.2992H65.3319Z" fill="white"/>
<path d="M59.1055 74.1288H54.9656V73.66C55.1152 73.6556 55.3067 73.6402 55.54 73.6138C55.7777 73.5874 55.9406 73.5499 56.0286 73.5015C56.1651 73.4179 56.2641 73.3233 56.3257 73.2176C56.3918 73.1076 56.4248 72.9711 56.4248 72.8082V65.9942H56.3257L53.13 73.9769H52.7998L49.756 65.8291H49.6701V71.4216C49.6701 71.9631 49.7031 72.3747 49.7692 72.6564C49.8396 72.9381 49.9452 73.1406 50.0861 73.2638C50.1829 73.3563 50.3832 73.4443 50.687 73.5279C50.9907 73.6116 51.1888 73.6556 51.2812 73.66V74.1288H47.4978V73.66C47.6959 73.6424 47.9028 73.6094 48.1185 73.561C48.3386 73.5125 48.508 73.4399 48.6269 73.3431C48.7809 73.2198 48.8866 73.0305 48.9438 72.7752C49.001 72.5199 49.0297 72.0929 49.0297 71.4943V66.7007C49.0297 66.4233 48.9966 66.1966 48.9306 66.0206C48.8646 65.8445 48.7699 65.7014 48.6467 65.5914C48.5102 65.4725 48.343 65.3845 48.1449 65.3273C47.9468 65.27 47.7509 65.237 47.5572 65.2282V64.7594H50.753L53.4337 71.7848L55.7249 65.9083C55.8085 65.6926 55.8789 65.4681 55.9362 65.2348C55.9978 64.9971 56.0308 64.8387 56.0352 64.7594H59.0923V65.2282C58.9691 65.2326 58.8106 65.2524 58.6169 65.2877C58.4276 65.3229 58.289 65.3559 58.2009 65.3867C58.0513 65.4395 57.95 65.5276 57.8972 65.6508C57.8444 65.7741 57.818 65.9083 57.818 66.0536V72.8082C57.818 72.9623 57.8444 73.0922 57.8972 73.1978C57.95 73.3034 58.0513 73.3959 58.2009 73.4751C58.2802 73.5191 58.421 73.561 58.6235 73.6006C58.826 73.6358 58.9867 73.6556 59.1055 73.66V74.1288Z" fill="white"/>
<path d="M95.2624 88.3479H92.7401C92.1811 87.472 91.6749 86.7148 91.2215 86.0766C90.7725 85.4383 90.2839 84.7802 89.7557 84.1023H88.7983V87.0736C88.7983 87.2277 88.8225 87.3641 88.8709 87.483C88.9193 87.5974 89.0227 87.6855 89.1812 87.7471C89.2605 87.7779 89.3991 87.8065 89.5972 87.8329C89.7953 87.8593 89.9625 87.8747 90.099 87.8791V88.3479H86.1373V87.8791C86.243 87.8703 86.3948 87.8549 86.5929 87.8329C86.7954 87.8109 86.9363 87.7823 87.0155 87.7471C87.1476 87.6899 87.2422 87.6062 87.2994 87.4962C87.361 87.3861 87.3919 87.2453 87.3919 87.0736V80.2991C87.3919 80.1451 87.3699 80.0086 87.3258 79.8898C87.2818 79.7709 87.1784 79.6807 87.0155 79.619C86.9055 79.5794 86.7624 79.5442 86.5863 79.5134C86.4102 79.4782 86.2606 79.4562 86.1373 79.4474V78.9786H90.4622C90.8583 78.9786 91.2303 79.0204 91.578 79.104C91.9258 79.1833 92.2405 79.3131 92.5222 79.4936C92.7951 79.6697 93.013 79.9008 93.1759 80.1869C93.3388 80.4686 93.4202 80.8098 93.4202 81.2103C93.4202 81.5713 93.3652 81.8904 93.2551 82.1677C93.1451 82.445 92.9822 82.6849 92.7665 82.8874C92.5684 83.0767 92.3307 83.2418 92.0534 83.3826C91.7761 83.5191 91.4702 83.6357 91.1356 83.7326C91.5978 84.3444 91.9808 84.8595 92.2845 85.2776C92.5927 85.6958 92.969 86.2042 93.4136 86.8029C93.6073 87.067 93.7812 87.2629 93.9352 87.3905C94.0937 87.5138 94.25 87.615 94.404 87.6943C94.5185 87.7515 94.6615 87.7955 94.8332 87.8263C95.0049 87.8571 95.1479 87.8747 95.2624 87.8791V88.3479ZM91.7893 81.3622C91.7893 80.7943 91.6265 80.3454 91.3007 80.0152C90.975 79.6807 90.515 79.5134 89.9207 79.5134H88.7983V83.5345H89.6632C90.2707 83.5345 90.7769 83.3408 91.1819 82.9535C91.5868 82.5617 91.7893 82.0313 91.7893 81.3622Z" fill="white"/>
<path d="M84.962 88.3479H80.7428V87.8791C80.8616 87.8703 81.0333 87.8571 81.2578 87.8395C81.4823 87.8219 81.6408 87.7955 81.7332 87.7603C81.8785 87.7031 81.9841 87.626 82.0502 87.5292C82.1162 87.428 82.1492 87.2893 82.1492 87.1132V80.3255C82.1492 80.1715 82.125 80.0438 82.0766 79.9426C82.0281 79.8369 81.9137 79.7489 81.7332 79.6785C81.6012 79.6257 81.4339 79.5772 81.2314 79.5332C81.0333 79.4848 80.8705 79.4562 80.7428 79.4474V78.9786H84.962V79.4474C84.8255 79.4518 84.6627 79.4694 84.4734 79.5002C84.2841 79.5266 84.119 79.5618 83.9782 79.6058C83.8109 79.6587 83.6986 79.7445 83.6414 79.8634C83.5842 79.9822 83.5556 80.1143 83.5556 80.2595V87.0406C83.5556 87.1858 83.5864 87.3157 83.648 87.4302C83.7141 87.5402 83.8241 87.6282 83.9782 87.6943C84.0706 87.7295 84.2203 87.7691 84.4272 87.8131C84.6384 87.8527 84.8167 87.8747 84.962 87.8791V88.3479Z" fill="white"/>
<path d="M80.5316 88.3479H76.6293V87.8791C76.9727 87.8571 77.2566 87.8131 77.4811 87.7471C77.71 87.6811 77.8244 87.5996 77.8244 87.5028C77.8244 87.4632 77.82 87.4148 77.8112 87.3575C77.8024 87.3003 77.7892 87.2497 77.7716 87.2057L76.9925 85.106H73.7109C73.5876 85.4141 73.4864 85.6826 73.4072 85.9115C73.3323 86.1404 73.2641 86.3517 73.2025 86.5454C73.1453 86.7347 73.1056 86.8887 73.0836 87.0076C73.0616 87.1264 73.0506 87.2233 73.0506 87.2981C73.0506 87.4742 73.1893 87.6106 73.4666 87.7075C73.7439 87.8043 74.0564 87.8615 74.4042 87.8791V88.3479H70.8783V87.8791C70.9927 87.8703 71.1358 87.8461 71.3075 87.8065C71.4792 87.7625 71.62 87.7053 71.7301 87.6348C71.9061 87.516 72.0426 87.3927 72.1394 87.2651C72.2363 87.133 72.3309 86.9526 72.4233 86.7237C72.8943 85.5484 73.4138 84.2278 73.9816 82.762C74.5494 81.2962 75.0557 79.991 75.5003 78.8465H76.0285L79.1516 86.9283C79.2176 87.1 79.2925 87.2387 79.3761 87.3443C79.4597 87.45 79.5764 87.5534 79.726 87.6547C79.8273 87.7163 79.9593 87.7691 80.1222 87.8131C80.2851 87.8527 80.4215 87.8747 80.5316 87.8791V88.3479ZM76.7548 84.5183L75.3352 80.8868L73.942 84.5183H76.7548Z" fill="white"/>
<path d="M71.1556 85.5616L70.9575 88.3479H63.635V87.8791C63.7407 87.8703 63.8925 87.8549 64.0906 87.8329C64.2931 87.8109 64.4339 87.7823 64.5132 87.7471C64.6452 87.6899 64.7399 87.6062 64.7971 87.4962C64.8587 87.3861 64.8895 87.2453 64.8895 87.0736V80.3652C64.8895 80.2155 64.8631 80.0834 64.8103 79.969C64.7619 79.8545 64.6628 79.7621 64.5132 79.6917C64.4119 79.6389 64.2689 79.5882 64.084 79.5398C63.9035 79.487 63.7539 79.4562 63.635 79.4474V78.9786H67.5901V79.4474C67.4668 79.4518 67.3062 79.4738 67.1081 79.5134C66.9144 79.553 66.7735 79.5882 66.6855 79.619C66.5358 79.6719 66.4324 79.7621 66.3752 79.8898C66.3223 80.0174 66.2959 80.1539 66.2959 80.2991V86.5916C66.2959 86.8821 66.3091 87.1088 66.3356 87.2717C66.3664 87.4302 66.4346 87.5534 66.5402 87.6414C66.6415 87.7207 66.7911 87.7735 66.9892 87.7999C67.1917 87.8219 67.4734 87.8329 67.8344 87.8329C67.9973 87.8329 68.1667 87.8285 68.3428 87.8197C68.5189 87.8109 68.6861 87.7933 68.8446 87.7669C68.9987 87.7405 69.1395 87.7053 69.2672 87.6613C69.3992 87.6128 69.4961 87.5534 69.5577 87.483C69.7382 87.2805 69.9473 86.9746 70.185 86.5652C70.4271 86.1514 70.5944 85.8169 70.6868 85.5616H71.1556Z" fill="white"/>
<path d="M59.0725 88.5658C58.5135 88.5658 57.9765 88.4558 57.4614 88.2357C56.9508 88.0156 56.4974 87.6987 56.1013 87.2849C55.7095 86.8711 55.397 86.3671 55.1637 85.7729C54.9304 85.1742 54.8137 84.5007 54.8137 83.7524C54.8137 83.0041 54.9282 82.3262 55.1571 81.7187C55.386 81.1069 55.7029 80.5809 56.1079 80.1407C56.5084 79.7049 56.9816 79.3681 57.5275 79.1304C58.0733 78.8927 58.6565 78.7739 59.2772 78.7739C59.7394 78.7739 60.1576 78.8311 60.5317 78.9456C60.9059 79.06 61.2624 79.2207 61.6014 79.4276L61.8721 78.9786H62.4003L62.4598 82.3196H61.9183C61.8479 81.9939 61.7423 81.6417 61.6014 81.2631C61.4605 80.8802 61.2955 80.5566 61.1062 80.2925C60.8949 79.9932 60.644 79.7599 60.3535 79.5926C60.0629 79.421 59.7306 79.3351 59.3564 79.3351C58.9295 79.3351 58.5311 79.4298 58.1613 79.6191C57.796 79.8083 57.479 80.0879 57.2105 80.4576C56.9552 80.8142 56.7549 81.2676 56.6097 81.8178C56.4644 82.368 56.3918 82.9821 56.3918 83.66C56.3918 84.2586 56.4666 84.8088 56.6163 85.3107C56.7703 85.8081 56.9882 86.2461 57.27 86.6246C57.5517 86.9988 57.884 87.2915 58.267 87.5028C58.6543 87.7141 59.0857 87.8197 59.5611 87.8197C59.9177 87.8197 60.2456 87.7647 60.5449 87.6547C60.8443 87.5402 61.104 87.3905 61.3241 87.2057C61.5442 87.012 61.7379 86.7919 61.9051 86.5454C62.0724 86.2989 62.2088 86.0304 62.3145 85.7398L62.8097 85.9775C62.4311 86.9063 61.9293 87.571 61.3043 87.9716C60.6792 88.3678 59.9353 88.5658 59.0725 88.5658Z" fill="white"/>
<path d="M101.573 96.701V96.862H47.3715V96.701H101.573Z" fill="white"/>
<path d="M85.6104 102.243L85.5595 103.032H83.3372V102.898C83.3749 102.895 83.4252 102.89 83.4881 102.883C83.551 102.874 83.5918 102.865 83.6107 102.856C83.6509 102.837 83.6786 102.813 83.6937 102.783C83.7101 102.752 83.7182 102.714 83.7182 102.667V100.743C83.7182 100.702 83.7113 100.665 83.6975 100.634C83.6836 100.601 83.6547 100.575 83.6107 100.555C83.5767 100.538 83.5308 100.524 83.473 100.511C83.4164 100.499 83.3711 100.491 83.3372 100.489V100.355H85.4085V101H85.2671C85.2419 100.904 85.1872 100.803 85.1029 100.696C85.0199 100.588 84.9407 100.529 84.8652 100.519C84.8262 100.514 84.7797 100.51 84.7256 100.507C84.6716 100.505 84.6099 100.504 84.5408 100.504H84.1201V101.568H84.4219C84.5187 101.568 84.5892 101.559 84.6332 101.541C84.6785 101.522 84.7181 101.492 84.752 101.449C84.7797 101.412 84.803 101.364 84.8218 101.304C84.842 101.242 84.8552 101.184 84.8615 101.13H85.0029V102.177H84.8615C84.8564 102.117 84.8426 102.053 84.82 101.986C84.7986 101.919 84.7759 101.869 84.752 101.839C84.7131 101.79 84.6684 101.758 84.6181 101.743C84.5691 101.728 84.5037 101.72 84.4219 101.72H84.1201V102.524C84.1201 102.605 84.1257 102.668 84.137 102.715C84.1484 102.761 84.1704 102.796 84.2031 102.82C84.2358 102.844 84.2804 102.86 84.337 102.867C84.3936 102.874 84.4741 102.877 84.5785 102.877C84.62 102.877 84.6747 102.877 84.7426 102.877C84.8105 102.877 84.8677 102.874 84.9143 102.869C84.9621 102.864 85.0111 102.856 85.0614 102.843C85.113 102.829 85.1495 102.811 85.1708 102.788C85.2287 102.728 85.2891 102.637 85.352 102.515C85.4161 102.391 85.457 102.301 85.4746 102.243H85.6104Z" fill="#CCCCCC"/>
<path d="M83.0241 103.032H81.8186V102.898C81.8526 102.895 81.9016 102.891 81.9658 102.886C82.0299 102.881 82.0752 102.874 82.1016 102.864C82.1431 102.847 82.1733 102.825 82.1921 102.798C82.211 102.769 82.2204 102.729 82.2204 102.679V100.739C82.2204 100.695 82.2135 100.659 82.1997 100.63C82.1858 100.6 82.1531 100.575 82.1016 100.555C82.0639 100.539 82.0161 100.526 81.9582 100.513C81.9016 100.499 81.8551 100.491 81.8186 100.489V100.355H83.0241V100.489C82.9851 100.49 82.9386 100.495 82.8845 100.504C82.8304 100.511 82.7832 100.521 82.743 100.534C82.6952 100.549 82.6631 100.573 82.6468 100.607C82.6304 100.641 82.6223 100.679 82.6223 100.721V102.658C82.6223 102.7 82.6311 102.737 82.6487 102.769C82.6675 102.801 82.699 102.826 82.743 102.845C82.7694 102.855 82.8122 102.866 82.8713 102.879C82.9316 102.89 82.9826 102.896 83.0241 102.898V103.032Z" fill="#CCCCCC"/>
<path d="M81.7488 103.032H81.0281C80.8684 102.781 80.7238 102.565 80.5942 102.383C80.4659 102.2 80.3263 102.012 80.1754 101.819H79.9019V102.667C79.9019 102.711 79.9088 102.75 79.9226 102.784C79.9365 102.817 79.966 102.842 80.0113 102.86C80.0339 102.869 80.0735 102.877 80.1301 102.884C80.1867 102.892 80.2345 102.896 80.2735 102.898V103.032H79.1416V102.898C79.1718 102.895 79.2152 102.891 79.2718 102.884C79.3296 102.878 79.3699 102.87 79.3925 102.86C79.4302 102.844 79.4573 102.82 79.4736 102.788C79.4912 102.757 79.5 102.717 79.5 102.667V100.732C79.5 100.688 79.4938 100.649 79.4812 100.615C79.4686 100.581 79.439 100.555 79.3925 100.538C79.3611 100.526 79.3202 100.516 79.2699 100.507C79.2196 100.497 79.1768 100.491 79.1416 100.489V100.355H80.3773C80.4905 100.355 80.5967 100.367 80.6961 100.39C80.7954 100.413 80.8854 100.45 80.9659 100.502C81.0438 100.552 81.1061 100.618 81.1526 100.7C81.1992 100.78 81.2224 100.878 81.2224 100.992C81.2224 101.095 81.2067 101.187 81.1753 101.266C81.1438 101.345 81.0973 101.414 81.0357 101.471C80.9791 101.526 80.9112 101.573 80.8319 101.613C80.7527 101.652 80.6653 101.685 80.5697 101.713C80.7017 101.888 80.8112 102.035 80.8979 102.154C80.986 102.274 81.0935 102.419 81.2205 102.59C81.2759 102.666 81.3256 102.722 81.3696 102.758C81.4148 102.793 81.4595 102.822 81.5035 102.845C81.5362 102.861 81.5771 102.874 81.6261 102.883C81.6752 102.891 81.7161 102.896 81.7488 102.898V103.032ZM80.7565 101.036C80.7565 100.873 80.7099 100.745 80.6169 100.651C80.5238 100.555 80.3924 100.507 80.2226 100.507H79.9019V101.656H80.149C80.3226 101.656 80.4672 101.601 80.5829 101.49C80.6986 101.378 80.7565 101.227 80.7565 101.036Z" fill="#CCCCCC"/>
<path d="M78.8681 102.243L78.8172 103.032H76.5948V102.898C76.6326 102.895 76.6829 102.89 76.7458 102.883C76.8087 102.874 76.8495 102.865 76.8684 102.856C76.9086 102.837 76.9363 102.813 76.9514 102.783C76.9677 102.752 76.9759 102.714 76.9759 102.667V100.743C76.9759 100.702 76.969 100.665 76.9552 100.634C76.9413 100.601 76.9124 100.575 76.8684 100.555C76.8344 100.538 76.7885 100.524 76.7307 100.511C76.6741 100.499 76.6288 100.491 76.5948 100.489V100.355H78.6662V101H78.5248C78.4996 100.904 78.4449 100.803 78.3606 100.696C78.2776 100.588 78.1984 100.529 78.1229 100.519C78.0839 100.514 78.0374 100.51 77.9833 100.507C77.9292 100.505 77.8676 100.504 77.7984 100.504H77.3778V101.568H77.6796C77.7764 101.568 77.8469 101.559 77.8909 101.541C77.9362 101.522 77.9758 101.492 78.0097 101.449C78.0374 101.412 78.0607 101.364 78.0795 101.304C78.0997 101.242 78.1129 101.184 78.1192 101.13H78.2606V102.177H78.1192C78.1141 102.117 78.1003 102.053 78.0776 101.986C78.0563 101.919 78.0336 101.869 78.0097 101.839C77.9707 101.79 77.9261 101.758 77.8758 101.743C77.8267 101.728 77.7613 101.72 77.6796 101.72H77.3778V102.524C77.3778 102.605 77.3834 102.668 77.3947 102.715C77.406 102.761 77.4281 102.796 77.4608 102.82C77.4935 102.844 77.5381 102.86 77.5947 102.867C77.6513 102.874 77.7318 102.877 77.8362 102.877C77.8777 102.877 77.9324 102.877 78.0003 102.877C78.0682 102.877 78.1254 102.874 78.172 102.869C78.2198 102.864 78.2688 102.856 78.3191 102.843C78.3707 102.829 78.4072 102.811 78.4285 102.788C78.4864 102.728 78.5468 102.637 78.6096 102.515C78.6738 102.391 78.7147 102.301 78.7323 102.243H78.8681Z" fill="#CCCCCC"/>
<path d="M76.1138 101.803C76.1704 101.866 76.2119 101.936 76.2383 102.011C76.2659 102.085 76.2798 102.172 76.2798 102.271C76.2798 102.508 76.1924 102.703 76.0176 102.856C75.8427 103.01 75.6258 103.086 75.3667 103.086C75.2472 103.086 75.1277 103.068 75.0083 103.032C74.8888 102.994 74.7857 102.949 74.6989 102.896L74.6178 103.033H74.4668L74.4404 102.117H74.5932C74.6247 102.23 74.6612 102.332 74.7027 102.424C74.7454 102.515 74.8014 102.6 74.8706 102.679C74.936 102.753 75.012 102.812 75.0988 102.856C75.1869 102.9 75.2887 102.922 75.4044 102.922C75.4912 102.922 75.5667 102.911 75.6308 102.888C75.6962 102.866 75.749 102.833 75.7893 102.792C75.8295 102.75 75.8591 102.702 75.878 102.647C75.8981 102.59 75.9081 102.525 75.9081 102.452C75.9081 102.346 75.878 102.246 75.8176 102.154C75.7572 102.061 75.6673 101.991 75.5478 101.943C75.4661 101.91 75.3724 101.875 75.2667 101.836C75.1611 101.795 75.0699 101.758 74.9932 101.722C74.8423 101.654 74.7247 101.566 74.6404 101.456C74.5574 101.346 74.5159 101.202 74.5159 101.024C74.5159 100.922 74.5366 100.828 74.5781 100.739C74.6196 100.651 74.6788 100.573 74.7555 100.504C74.8284 100.438 74.9146 100.387 75.0139 100.351C75.1133 100.313 75.217 100.294 75.3252 100.294C75.4485 100.294 75.5585 100.313 75.6553 100.351C75.7534 100.389 75.8427 100.433 75.9232 100.483L76.0006 100.355H76.1515L76.1666 101.243H76.0138C75.9861 101.141 75.9547 101.044 75.9195 100.951C75.8855 100.858 75.8409 100.773 75.7855 100.698C75.7314 100.625 75.6654 100.567 75.5874 100.524C75.5095 100.48 75.4139 100.458 75.3007 100.458C75.1812 100.458 75.0793 100.497 74.9951 100.573C74.9108 100.65 74.8687 100.744 74.8687 100.855C74.8687 100.97 74.8957 101.066 74.9498 101.143C75.0039 101.219 75.0825 101.281 75.1856 101.33C75.2774 101.374 75.3673 101.412 75.4554 101.445C75.5447 101.476 75.6308 101.51 75.7138 101.547C75.7893 101.58 75.8616 101.617 75.9308 101.658C76.0012 101.7 76.0622 101.748 76.1138 101.803Z" fill="#CCCCCC"/>
<path d="M73.9442 101.803C74.0008 101.866 74.0423 101.936 74.0687 102.011C74.0964 102.085 74.1102 102.172 74.1102 102.271C74.1102 102.508 74.0228 102.703 73.848 102.856C73.6732 103.01 73.4562 103.086 73.1972 103.086C73.0777 103.086 72.9582 103.068 72.8387 103.032C72.7192 102.994 72.6161 102.949 72.5293 102.896L72.4482 103.033H72.2973L72.2709 102.117H72.4237C72.4551 102.23 72.4916 102.332 72.5331 102.424C72.5759 102.515 72.6318 102.6 72.701 102.679C72.7664 102.753 72.8425 102.812 72.9293 102.856C73.0173 102.9 73.1192 102.922 73.2349 102.922C73.3217 102.922 73.3971 102.911 73.4613 102.888C73.5267 102.866 73.5795 102.833 73.6197 102.792C73.66 102.75 73.6895 102.702 73.7084 102.647C73.7285 102.59 73.7386 102.525 73.7386 102.452C73.7386 102.346 73.7084 102.246 73.648 102.154C73.5877 102.061 73.4977 101.991 73.3783 101.943C73.2965 101.91 73.2028 101.875 73.0972 101.836C72.9915 101.795 72.9003 101.758 72.8236 101.722C72.6727 101.654 72.5551 101.566 72.4708 101.456C72.3878 101.346 72.3463 101.202 72.3463 101.024C72.3463 100.922 72.3671 100.828 72.4086 100.739C72.4501 100.651 72.5092 100.573 72.5859 100.504C72.6589 100.438 72.745 100.387 72.8444 100.351C72.9437 100.313 73.0475 100.294 73.1556 100.294C73.2789 100.294 73.3889 100.313 73.4858 100.351C73.5839 100.389 73.6732 100.433 73.7537 100.483L73.831 100.355H73.9819L73.997 101.243H73.8442C73.8166 101.141 73.7851 101.044 73.7499 100.951C73.7159 100.858 73.6713 100.773 73.616 100.698C73.5619 100.625 73.4958 100.567 73.4179 100.524C73.3399 100.48 73.2443 100.458 73.1311 100.458C73.0116 100.458 72.9098 100.497 72.8255 100.573C72.7412 100.65 72.6991 100.744 72.6991 100.855C72.6991 100.97 72.7262 101.066 72.7802 101.143C72.8343 101.219 72.9129 101.281 73.016 101.33C73.1079 101.374 73.1978 101.412 73.2858 101.445C73.3751 101.476 73.4613 101.51 73.5443 101.547C73.6197 101.58 73.692 101.617 73.7612 101.658C73.8316 101.7 73.8926 101.748 73.9442 101.803Z" fill="#CCCCCC"/>
<path d="M71.9427 103.032H70.7372V102.898C70.7711 102.895 70.8202 102.891 70.8843 102.886C70.9485 102.881 70.9937 102.874 71.0202 102.864C71.0617 102.847 71.0918 102.825 71.1107 102.798C71.1296 102.769 71.139 102.729 71.139 102.679V100.739C71.139 100.695 71.1321 100.659 71.1183 100.63C71.1044 100.6 71.0717 100.575 71.0202 100.555C70.9824 100.539 70.9346 100.526 70.8768 100.513C70.8202 100.499 70.7737 100.491 70.7372 100.489V100.355H71.9427V100.489C71.9037 100.49 71.8571 100.495 71.8031 100.504C71.749 100.511 71.7018 100.521 71.6616 100.534C71.6138 100.549 71.5817 100.573 71.5654 100.607C71.549 100.641 71.5408 100.679 71.5408 100.721V102.658C71.5408 102.7 71.5496 102.737 71.5672 102.769C71.5861 102.801 71.6176 102.826 71.6616 102.845C71.688 102.855 71.7307 102.866 71.7899 102.879C71.8502 102.89 71.9012 102.896 71.9427 102.898V103.032Z" fill="#CCCCCC"/>
<path d="M70.5561 101.081H70.4259C70.4146 101.036 70.3939 100.982 70.3637 100.921C70.3347 100.858 70.302 100.799 70.2656 100.743C70.2278 100.685 70.1863 100.635 70.1411 100.592C70.097 100.548 70.0543 100.523 70.0128 100.517C69.9738 100.512 69.9247 100.508 69.8656 100.506C69.8065 100.503 69.7518 100.502 69.7015 100.502H69.5921V102.643C69.5921 102.684 69.6009 102.723 69.6185 102.758C69.6361 102.792 69.6669 102.818 69.7109 102.837C69.7336 102.846 69.7807 102.858 69.8524 102.873C69.9254 102.888 69.982 102.896 70.0222 102.898V103.032H68.7582V102.898C68.7935 102.895 68.8469 102.89 68.9186 102.883C68.9915 102.875 69.0419 102.866 69.0695 102.854C69.111 102.838 69.1412 102.815 69.1601 102.784C69.1802 102.753 69.1903 102.711 69.1903 102.66V100.502H69.0808C69.0419 100.502 68.9934 100.503 68.9356 100.506C68.8777 100.507 68.8224 100.511 68.7696 100.517C68.7281 100.522 68.6847 100.547 68.6394 100.592C68.5954 100.636 68.5545 100.687 68.5168 100.743C68.479 100.8 68.4457 100.86 68.4168 100.924C68.3879 100.987 68.3677 101.039 68.3564 101.081H68.2244V100.355H70.5561V101.081Z" fill="#CCCCCC"/>
<path d="M68.2847 103.032H67.1698V102.898C67.2679 102.891 67.349 102.879 67.4131 102.86C67.4785 102.841 67.5112 102.818 67.5112 102.79C67.5112 102.779 67.51 102.765 67.5074 102.749C67.5049 102.732 67.5012 102.718 67.4961 102.705L67.2735 102.105H66.3359C66.3007 102.193 66.2718 102.27 66.2491 102.335C66.2278 102.401 66.2083 102.461 66.1907 102.517C66.1743 102.571 66.163 102.615 66.1567 102.649C66.1504 102.683 66.1473 102.71 66.1473 102.732C66.1473 102.782 66.1869 102.821 66.2661 102.849C66.3454 102.876 66.4347 102.893 66.534 102.898V103.032H65.5266V102.898C65.5593 102.895 65.6002 102.888 65.6492 102.877C65.6983 102.864 65.7385 102.848 65.77 102.828C65.8203 102.794 65.8593 102.759 65.8869 102.722C65.9146 102.684 65.9416 102.633 65.9681 102.567C66.1026 102.232 66.251 101.854 66.4133 101.436C66.5755 101.017 66.7201 100.644 66.8472 100.317H66.9981L67.8904 102.626C67.9093 102.675 67.9307 102.715 67.9546 102.745C67.9784 102.775 68.0118 102.805 68.0545 102.833C68.0835 102.851 68.1212 102.866 68.1677 102.879C68.2143 102.89 68.2533 102.896 68.2847 102.898V103.032ZM67.2056 101.937L66.8 100.9L66.402 101.937H67.2056ZM67.5395 100.128L67.449 100.189L66.9226 99.7887L66.4038 100.189L66.3133 100.128L66.7547 99.5925C66.7774 99.5648 66.7994 99.544 66.8208 99.5302C66.8434 99.5151 66.8799 99.5076 66.9302 99.5076C66.9817 99.5076 67.017 99.5145 67.0358 99.5283C67.0559 99.5422 67.0754 99.561 67.0943 99.5849L67.5395 100.128Z" fill="#CCCCCC"/>
<path d="M65.4794 101.015C65.4794 101.154 65.4518 101.278 65.3964 101.387C65.3424 101.493 65.2669 101.582 65.1701 101.653C65.0745 101.723 64.9695 101.775 64.855 101.807C64.7406 101.84 64.6192 101.856 64.4909 101.856H64.191V102.667C64.191 102.711 64.1979 102.75 64.2117 102.784C64.2268 102.817 64.257 102.842 64.3023 102.86C64.3249 102.869 64.3645 102.877 64.4211 102.884C64.479 102.892 64.5318 102.896 64.5796 102.898V103.032H63.4307V102.898C63.4609 102.895 63.5043 102.891 63.5609 102.884C63.6187 102.878 63.659 102.87 63.6816 102.86C63.7193 102.844 63.7464 102.82 63.7627 102.788C63.7803 102.757 63.7891 102.717 63.7891 102.667V100.736C63.7891 100.692 63.7828 100.652 63.7703 100.617C63.7577 100.582 63.7281 100.555 63.6816 100.538C63.6338 100.521 63.586 100.51 63.5382 100.504C63.4917 100.496 63.4514 100.491 63.4175 100.489V100.355H64.6399C64.889 100.355 65.0908 100.415 65.2455 100.536C65.4015 100.655 65.4794 100.815 65.4794 101.015ZM64.9059 101.471C64.9487 101.411 64.977 101.349 64.9908 101.285C65.0047 101.219 65.0116 101.161 65.0116 101.109C65.0116 101.038 65.0028 100.965 64.9852 100.89C64.9688 100.816 64.9399 100.751 64.8984 100.696C64.8544 100.637 64.7965 100.591 64.7248 100.558C64.6531 100.526 64.5639 100.509 64.4569 100.509H64.191V101.692H64.3834C64.5192 101.692 64.6293 101.671 64.7135 101.63C64.799 101.587 64.8632 101.534 64.9059 101.471Z" fill="#CCCCCC"/>
</svg>
